<?xml version="1.0" encoding="utf-8"?>
<!-- Generator: Adobe Illustrator 24.0.2, SVG Export Plug-In . SVG Version: 6.00 Build 0)  -->
<svg version="1.1" id="Warstwa_2" xmlns="http://www.w3.org/2000/svg" xmlns:xlink="http://www.w3.org/1999/xlink" x="0px" y="0px"
	 viewBox="0 0 2607.1286621 2160" style="enable-background:new 0 0 2607.1286621 2160;" xml:space="preserve">
<style type="text/css">
	.st0{fill:#84CEEE;stroke:#000000;stroke-width:3.0202453;stroke-miterlimit:10;}
	.st1{fill:#E4E0E4;stroke:#000000;stroke-width:3.0202453;stroke-miterlimit:10;}
	.st2{fill:#FFFFFF;stroke:#000000;stroke-width:2.4824781;stroke-miterlimit:10;}
	.st3{stroke:#000000;stroke-width:3.0202453;stroke-miterlimit:10;}
	.st4{fill:#FFFFFF;stroke:#000000;stroke-width:3.0202453;stroke-miterlimit:10;}
	.st5{fill:none;stroke:#000000;stroke-width:3.0202453;stroke-miterlimit:10;}
</style>
<path class="st0" d="M1183.7824707,342.3547974c-164.1558228-174.1806793-405.8075562-163.6452789-475.836853-156.3566437
	c-17.1165771,1.7814789-33.6451416,7.6985474-47.531189,17.8635101
	c-79.2351685,58.0022278,81.0994873,132.5764771,81.0994873,132.5764771
	c176.0199585,97.6245117,110.9369507,266.2486267,110.9369507,266.2486267L1183.7824707,342.3547974z"/>
<path class="st1" d="M2027.72229,1127.0427246c0,0-159.5457764-268.8967285-386.3494873-404.8745728
	c0,0-113.0030518-82.3884888,68.3654785-111.6960449c0,0,172.6623535-36.3302002,307.1535645,127.1835327
	s88.1230469,399.1571045,88.1230469,399.1571045S2088.5234375,1243.994873,2027.72229,1127.0427246z"/>
<path class="st0" d="M627.7025146,1683.9230957c31.7732544-190.6392822,148.2750854-431.5863037,563.9747314-675.1810303
	s889.6503906-233.0036621,889.6503906-233.0036621s458.0639648,39.7164917,386.5742188-87.3764038
	s-230.3557129-142.9794922-230.3557129-142.9794922c32.3522949-108.3103027-45.8913574-188.9715881-126.3535156-240.7929077
	c-72.9030762-46.9529724-156.2351074-75.1472168-242.4610596-84.3414307
	c-200.4523926-21.3741302-665.5567627-20.7032776-1013.3209229,367.4986572
	c-455.4162598,508.371582-368.0398865,1096.1762695-368.0398865,1096.1762695s9.9861755,145.9378662,67.6733704,145.9378662
	C612.7313843,1829.8609619,627.7025146,1683.9230957,627.7025146,1683.9230957z"/>
<path class="st1" d="M695.600769,1929.8505859c-99.8484497,3.3282471-134.0414429-38.2752686-134.0414429-38.2752686
	c-30.8646851,51.5883789-138.8776245,56.5808105-138.8776245,56.5808105
	c-173.0706024-8.3206787-251.2827301,99.753418-251.2827301,99.753418s-2.3863068-346.013916,398.5125732-367.4906006
	c0,0,334.0823975-11.9315186,381.8084717,300.6740723c0,0-147.2489624-65.5328369-238.0712891-52.6290283
	C707.664856,1929.314209,701.6447144,1929.8505859,695.600769,1929.8505859L695.600769,1929.8505859z"/>
<path class="st1" d="M2187.4936523,672.5300903c-37.6726074-14.2556763-106.0395508-29.8740234-205.3775635-13.6398926
	c-86.1207275,14.0741577-173.0524902,22.6300659-260.2982178,24.3751221
	c-138.9816895,2.7798462-363.5126953,29.4872437-602.9379883,147.9127197
	c-393.1500854,194.4612427-596.0661621,505.1765747-627.7718506,779.9588013l-4.0819092,32.0666504
	c-5.0780029,39.8918457,2.4842224,78.7409668,13.5732727,117.3955078
	c9.9183044,34.5736084,27.0432739,69.2619629,54.4447021,69.2619629c57.6872559,0,72.468811-144.236084,72.468811-144.236084
	c31.7731934-190.6394043,142.9366455-433.2880859,558.6363525-676.8828125s889.6505127-233.0036621,889.6505127-233.0036621
	s464.7250977,41.8043213,393.2353516-85.2885742c0,0-33.1740723,23.1465454-151.1259766,12.5262451
	C2273.2385254,698.9539185,2229.4421387,688.4037476,2187.4936523,672.5300903z"/>
<path class="st0" d="M1295.1329346,1235.456543c0,0,97.8250732-296.9689331,289.9814453-478.644043
	c0,0,92.5843506-104.812561-90.8376465-94.3312988c0,0-176.4344482,1.7468872-272.5125732,190.4094849
	c-96.0782471,188.6626587,0,408.7689819,0,408.7689819S1260.9741211,1362.7662354,1295.1329346,1235.456543z"/>
<g>
	<path class="st2" d="M2060.3708496,557.0402222c1.3845215-7.8051147,2.1367188-15.9061279,2.1367188-24.2307739
		c0-61.7140808-40.1186523-111.7435913-89.6079102-111.7435913c-49.4893799,0-89.6080322,50.0295105-89.6080322,111.7435913
		c0,8.324646,0.7521973,16.4256592,2.1367188,24.2307739H2060.3708496z"/>
	<circle class="st3" cx="1993.2336426" cy="519.2601318" r="37.7800484"/>
	<path class="st4" d="M1960.6540527,501.768219c-0.307251,0-0.6072998,0.030426-0.9108887,0.045929
		c-2.7260742,5.2218933-4.2895508,11.1477051-4.2895508,17.4459839c0,6.2983398,1.5634766,12.2241211,4.2895508,17.4460449
		c0.3035889,0.0155029,0.6036377,0.0458984,0.9108887,0.0458984c9.6611328,0,17.4921875-7.8313599,17.4921875-17.4919434
		C1978.1462402,509.5992737,1970.3151855,501.768219,1960.6540527,501.768219z"/>
</g>
<line class="st5" x1="2237.5461426" y1="545.3825073" x2="2156.4277344" y2="545.3825073"/>
</svg>
