<?xml version="1.0" encoding="UTF-8"?>
<svg viewBox="0 0 310 270" xmlns="http://www.w3.org/2000/svg">
 <g transform="matrix(1.25,0,0,-1.25,0,270)">
  <g transform="scale(.24)">
   <path d="m13.762 170.2c4.6016 8.285 4.7852 16.75 11.227 24.297-9.0195 16.379-11.41 33.863-15.645 52.266-7.7305 24.847-3.6797 47.113-2.9453 72.695 1.4726 8.836 1.8398 19.695 4.7852 27.977 11.781 52.82 32.945 102.51 67.363 145.39 14.723 19.512 31.469 41.594 53.187 53.559-11.41 33.496-23.375 65.332-22.086 100.12-2.023 0.922 1.473 2.945-0.918 4.051 3.497 15.273-0.371 32.391 8.465 46.562 10.309 21.164 20.614 43.25 39.754 58.895-2.023 13.066-0.367 27.234 3.129 38.644-1.656 0.739 1.473 2.028-0.918 2.211-1.66-2.761-4.051-6.074-6.074-9.019-6.813-19.141-20.984-35.703-29.266-53.922-1.285-1.105-3.129-2.027-4.418-0.922-1.285 2.762-4.047 1.473-5.886 3.129-14.727 15.828-29.817 34.23-35.336 54.844-1.4727 10.859-9.3867 23.191 0 32.39 8.4648 13.071 21.715 24.848 29.629 38.649 9.203 8.469 16.382 20.797 28.711 22.457 19.695-0.922 37.363-9.574 55.953-14.543 20.058 16.012 42.699 26.871 70.488 22.641 26.133-3.129 51.164-11.227 73.066-25.77 29.262 18.039 58.895 40.309 96.625 32.395 8.649-1.29 17.668-1.657 25.215-5.34 13.801-2.391 22.453-15.274 34.231-21.715 4.234-2.395 8.281-6.813 11.965-9.754 15.828 0.551 28.71 13.434 45.089 11.043 14.539-1.289 32.946 3.496 44.356-5.707 0.555-1.473 0.738-2.945 2.211-4.051l-0.371-0.367c9.386-24.477 26.687-45.457 30.554-72.328 4.231-33.864-17.117-64.047-31.105-93.492l-6.992-13.618c-1.657-0.371-4.051 2.942-4.418 4.414-5.153 4.602-9.754 9.02-15.645 12.883-1.289-3.129 1.289-6.625 0.922-10.304 5.336-28.895-8.101-55.215-26.504-73.985 1.289-2.578 4.602-4.051 6.992-5.707 20.614 10.676 40.309 23.188 65.153 23.375 7.914 0 16.011 0.551 22.64-2.211 4.602 0 6.993 5.34 11.039 6.625 21.352 12.883 44.172 22.27 68.836 27.055 29.262 5.891 58.528-1.656 84.477-10.488 12.332-4.969 22.637-14.911 32.945-23.559 21.719 3.496 38.832-6.809 56.133-15.09 17.117-14.539 27.055-36.808 30.738-59.445-2.211-9.02 0.551-16.75-3.129-25.215 3.864-16.012 15.829-32.023 16.746-49.141-0.183-2.207 2.211-5.152 1.29-7.543 4.418-17.117 2.945-37.73 2.207-54.109 0.554-2.945 4.418-3.312 6.257-5.707 28.895-28.156 35.524-67.543 39.942-106.01-1.473-15.09 5.336-32.023 2.207-47.851l-0.922-14.539c12.699-12.145 20.799-28.895 32.759-40.856 3.32-4.418 3.13-9.387 6.63-14.172 3.49-6.441 4.42-14.722 4.6-22.086 0.37-14.355 1.29-27.238-4.05-39.015-1.1-9.387-4.42-18.035-7.54-26.684-4.97-9.0194-9.21-20.062-16.94-28.711l0.55-0.5547c-16.56-26.133-38.279-51.715-62.939-68.094-11.043-7.1797-24.664-10.676-37.179-7.5469-13.067 0.36719-23.188 9.0195-33.313 15.828-15.644-3.8672-30.551 2.3906-43.434 9.3867-8.464 3.1289-4.601 15.09-13.804 15.09-7.914-1.1015-14.723 3.1289-21.164 6.625-5.153 8.6524-15.828 14.91-12.883 25.766-1.656 5.8906 1.101 12.883 2.574 18.039 20.246 42.696 70.676 42.696 106.01 63.86 4.785 5.339 20.43 4.972 14.172 16.011-18.586 8.469-32.207 20.246-46.93 34.969-17.117 21.535-26.687 47.301-30.555 73.984-2.023 4.973-1.656 10.125-3.679 15.461-8.649-4.05-16.563-9.937-25.582-13.25 12.882-10.492 27.054-25.769 31.839-42.882 4.235-16.379-1.105-32.024-7.914-45.274-9.386-15.644-25.949-20.062-38.097-33.312-24.477-20.614-44.356-51.899-78.59-53.188-21.531-0.367-51.531-4.418-61.102 19.508-8.281-1.473-17.3 0.551-24.293 4.969 0.551-3.313 0.368-7.36 1.657-11.594 0.367-22.27-1.289-44.539-17.668-60.734-4.973-5.336-11.414-7.5469-16.934-11.961-6.074-0.7383-11.41-3.5-17.668-4.4179-16.012 0-35.523 4.7851-49.695-3.8672-15.09-4.2305-28.895-12.328-41.961-20.426-4.969-1.1055-9.203-4.9688-13.805-5.3399-14.355-5.5195-33.863-7.7265-46.562 4.0508-3.129 3.1289-7.731 5.336-9.203 9.7539l-2.207 0.7344c2.757 2.5781-1.473 4.2344-1.473 6.8125l-2.211 11.961c-3.125 0.9219-5.336-3.3125-8.832-3.1289-13.621 1.1055-29.078 4.6016-33.129 19.508l-1.84 11.043c-15.277-0.5508-24.848 15.645-32.394 26.504l-3.125 19.508c3.312 22.086 23.742 36.254 43.066 43.066 18.035 9.2 41.777 9.754 61.652 9.754-2.207 10.121-1.285 23.188 0.371 34.965-1.843 2.395-3.683-0.918-5.707-0.367-29.078 0.738-61.101-0.551-88.711 6.074-23.558 1.106-44.906 6.074-67.359 11.227-21.535 8.652-42.332 17.3-62.391 28.711-14.542 9.937-24.296 20.429-37.73 31.839-2.578-10.675-2.395-21.902-7.914-31.839-2.762-8.098-8.098-17.301-16.012-22.637 5.336-11.594 16.196-27.606 4.414-39.754 6.075-8.832 17.856-11.043 24.848-19.508 13.988-16.746 25.215-35.152 27.977-56.871 2.023-19.508-13.989-38.832-30.184-48.586-11.781-4.7852-23.008-14.906-36.813-10.305-5.886 6.8086-10.304-2.2071-16.011-3.1289-9.2-5.5235-23.188-6.625-32.758-0.9219-4.0508 2.7617-7.3633 6.9961-11.598 7.1797-9.1992-4.7852-22.27-5.7071-32.758-2.5781-11.965 2.7617-21.535 11.965-25.215 23.926-7.9141 27.606-2.5781 49.691 2.207 77.113l2.5781 13.25"/>
   <path d="m18.3633,164.309c-1.8399,8.464 4.7851,15.457 6.625,23.554 2.0234.188 1.6562,3.867 4.418,2.762l3.1289,5.152c-5.7071,5.707-8.4688,14.539-9.3868,21.352h-.9218c-1.2852,4.047-2.2071,7.176-3.1289,11.594-2.5743,10.304-3.3125,21.898-5.336,32.757-.5508.184-.3672.739-.3672,1.29h.3672c-.9219,27.976-1.1054,56.871 5.8906,85.578 8.0977,23.007 13.6172,48.406 24.293,70.859 2.0235,2.758 3.1289,6.625 5.336,9.754 14.3554,40.305 41.5976,68.828 71.7817,99.75 4.23,4.785 11.593,3.496 16.929,4.414 8.281-12.512 18.774-18.586 29.633-28.34-4.418-4.234 2.207-7.914 1.289-13.25 1.656-1.656 1.289-4.234 1.84-6.258-5.707-2.945-13.438-5.707-15.461-12.882 0-3.684-2.391-8.098.734-11.043 4.418-4.786 10.125-6.625 16.016-7.547 3.68-19.875 12.145-37.36 27.055-51.899 2.023.367 1.289-2.023 2.574-2.578 12.148-10.305 27.609-14.539 40.859-23.004 37.364-15.828 85.032-16.75 121.84.735 21.719,12.699 46.195,24.664 59.813,48.402 11.597,12.148 16.75,27.977 20.062,42.516-1.84,1.105-.183,2.578 0,4.05-.734,6.809-3.68,14.723-6.258,18.953 9.571-1.656 18.039,5.891 26.504,8.469 16.746,7.543 26.688,25.762 34.231,41.223 8.652,10.676 9.386,24.48 17.672,35.336 1.285,2.945 2.574,6.996 4.414,10.308 5.523,18.403 13.254,39.016 8.097,58.524-6.258,16.195-3.308,35.89-12.883,51.348-9.937,20.796-27.421,41.042-47.851,52.269l-.918,1.289c3.68,27.789-4.602,55.762-29.816,70.117-1.84-.183-4.418.555-5.708-1.289 0-3.863 4.418-3.129 6.625-4.414 8.469-10.492 22.086-18.406 23.559-33.312l1.289-25.766c-1.473-1.105 0-1.84-.367-3.496l-18.223,6.625c-3.129,5.703-1.101,12.699-3.496,18.219-.367,4.05-2.574,8.652-4.969,12.332-5.707,8.281-12.882,13.984-21.164,20.797-9.203,4.601-18.039,12.515-29.265,9.386l-2.207-2.578c4.23-3.312 8.281.735 12.883-2.207 .921-1.84 3.128-.371 4.418-1.472v-.739c-21.352-1.84-26.504-24.844-34.235-39.937-.551-1.84.367-6.809-3.129-4.969-12.515,13.621-31.656,15.828-49.508,12.516 2.395,11.777 2.395,22.636-7.546,30.918-6.442,4.418-12.145,13.253-19.508,11.964 3.496.368 7.363.735 9.754,3.129l-1.84,2.207c-23.742-.734-49.508-13.988-60.184-38.097l-1.84-7.914c-26.32,4.05-48.218-8.649-68.648-20.793-3.684,11.039-.738,23.738.918,34.965 6.074,16.75 9.57,34.785 18.59,50.429 21.164,30.367 55.031,46.008 92.574,38.649 14.91-3.868 30-7.547 43.066-16.012 8.098.184 10.125-9.938 17.118-11.965 1.839-2.941 5.156-4.047 8.464-4.414l1.293,2.207c-1.843,1.84-5.339,1.656-6.074,4.418 9.57,5.703 18.035,11.961 27.422,16.93 29.078,18.957 72.145,23.008 102.883,3.496 8.097-4.414 10.855-12.328 18.035-17.297 4.234-4.418 5.707-10.676 11.227-13.805 .921.735 2.207.555 2.945,1.84 0,1.106-1.473,2.024-.367,3.129 25.765,10.676 58.156,15.828 85.949,6.992 8.098-2.941 6.258-13.066 10.676-18.953 3.496-13.066 8.832-27.422 15.457-40.305 4.234-14.355 0-31.656-3.129-46.195-6.258-16.379-13.801-33.312-20.797-50.059-2.762-3.128-3.68-11.414-9.203-7.914-20.242,14.356-36.992,34.231-43.985,57.973-2.945,5.891-3.128,12.699-4.785,19.141-2.945,19.14-4.234,37.359.918,56.683-.734,2.762 1.289,5.891 0,8.836-2.758.918-3.496,5.887-6.808,2.758 3.679-6.07.738-10.488.922-17.301-4.418,1.473-8.469-.734-11.965-3.125 0-1.472 1.472-2.578 2.761-2.761l7.914,2.761c-.738-4.234.368-9.57-4.418-12.515-1.105-9.02-.367-16.75.918-25.215 3.129-24.844 13.438-47.481 27.977-66.805 3.684-5.523 8.285-11.226 6.996-19.144 8.649-26.317-.738-53.922-16.016-74.903-2.207-1.105-3.679-4.785-6.625-4.418-.367-2.578-4.414-1.84-3.496-5.336 4.235-.922 2.579-6.996 6.258-7.914l.922,2.207c1.84-2.574 6.07-1.656 8.281-4.418 2.578.739 2.207-2.941 4.418-2.758 11.227-11.042 19.692-25.031 21.715-40.675 1.473-1.285 2.027-4.231 4.418-4.047 3.313,1.656-.551,3.863-.734,5.703-3.129,13.621-7.18,26.504-15.645,37.73-.183,2.762-3.496,4.235-4.785,6.625 32.758,18.957 80.242,23.375 113.926,3.129 11.039-5.89 22.086-12.882 32.758-18.957-.184,1.106 2.211,1.84.922,2.946-20.43,9.203-35.524,31.472-57.239,37.359 12.699,11.41 29.446,15.645 44.723,21.719 21.719,4.968 43.801,8.832 67.359,5.336 32.578-4.231 59.266-22.637 85.582-42.145 14.727-13.988 31.289-28.344 43.805-45.644 9.937-17.852 20.613-35.52 25.398-55.395 6.993-16.379 15.094-33.863 17.301-52.269 .367-35.336-7.914-68.278-16.933-101.957 2.023-1.657-1.84-6.997 2.578-6.625 1.289,2.207 1.289,6.257 3.129,8.832 .734,9.937 6.808,18.773 7.547,27.421 2.207,7.364 6.253,13.989 9.753,20.797 5.52,1.106 8.832-6.258 11.961-9.203 19.141-24.476 20.981-55.394 27.61-85.578 2.207-24.844 2.941-45.824 2.574-69.566 1.84-3.313 5.152-6.075 7.18-9.387h.734c11.781-14.356 21.72-32.024 27.61-50.059 10.12-14.722 6.25-35.152 6.99-50.98-10.49-43.8009-40.303-80.6095-72.698-111.1603-4.418-1.2891-7.175-6.2578-11.41-7.9141-9.937-5.5234-20.062-12.33201-32.39-12.88279-11.965,3.4961-24.297,6.25779-34.235,15.08989-8.097,10.3086-11.965,24.4804-6.996,38.0976 2.395,13.9883 20.801,19.875 22.641,33.1289-2.578-.7383-2.762-4.0508-4.969-5.707-16.199-9.9375-25.582-26.5039-24.848-44.7227-.183-7.914 5.153-14.539 9.02-21.3476-14.723-3.8672-26.504,4.4179-38.652,9.3867-10.489,7.543-9.754,21.3477-7.543,33.125 5.335,11.2266 12.515,23.7422 24.476,30.1836 2.207.3672 3.496.1836 4.785,2.2109-1.105,2.9414-4.418,1.8399-6.258,1.2852-17.117-10.8555-32.757-29.4453-28.343-51.3477-10.676,3.6836-22.821,10.3086-28.711,21.7188-4.418,9.0195-1.656,20.2461 2.578,28.3437 19.141,21.7149 44.723,29.4449 67.914,42.5119 17.668,8.281 36.625,13.621 53.555,23.558 1.656,4.415 7.547,5.52 6.996,11.043-10.86,9.016-23.375,14.356-35.891,20.059-39.387,25.949-56.687,70.488-51.348,116.867 2.207,21.164 7.36,41.961 14.172,61.653-.554,1.289-.738,2.945-1.656,4.05-6.074-9.203-7.914-21.164-13.805-30.183-2.945-13.805-10.675-26.684-8.836-41.227-15.457-6.992-29.445-17.851-45.273-23.926-51.348-22.082-100.676-51.347-157.727-60.73-2.945,1.101-7.914-1.844-10.675-.371 7.175,27.609 17.668,57.055 11.593,86.871-3.496,25.211-14.171,47.297-18.218,72.141-4.418,8.285-7.364,17.668-11.043,25.765-1.106,2.028-4.051,3.5-3.496,6.074-5.157,10.125-12.52,17.485-11.965,30.184-.735,1.473-1.473.367-2.395,0v-6.992h-.367c-2.023-12.883 4.234-23.192 11.965-32.391 19.324-38.836 23.187-86.683 23.926-130.305 .183-22.453-6.442-46.007-11.598-69.199-3.863-6.258-2.574-11.593-7.359-17.668 5.886-5.336 7.175-13.617 11.961-19.508 4.05-16.562 8.097-33.679 8.285-51.347-.739-3.129-.188-8.098-.371-11.9611-4.231-10.6758-4.786-24.293-15.457-31.1055-3.868-3.8633-9.02-7.3594-13.805-9.7539-12.332-5.8867-26.688-5.5195-40.305-5.3359-25.031-5.5235-46.383-19.6914-69.57-29.6289-11.781-2.9454-23.008-11.4141-35.891-7.5469-7.73,2.3906-14.722,5.3359-20.429,11.5937l2.211.3672c-6.813,4.418-8.469,16.9336-10.676,26.1367-.367,5.8868 1.84,11.961 5.336,16.9297 1.472,4.6016 5.707,9.3867 8.468,13.6172 7.36,11.043 19.692,19.5117 33.313,20.8007 5.519.18 11.043.367 14.906-3.5 1.473-.367 2.762.551 3.129,1.84-9.019,11.598-25.949,4.602-37.18.922-15.273-7.7307-24.293-23.0041-31.839-36.8088-5.153-6.9922 2.211-20.4297-11.594-19.5078-9.387,1.1055-18.59,2.207-25.215,9.7539-8.281,14.1719-6.258,29.8164 3.129,42.8827 7.914,8.649 14.539,21.531 26.504,24.844 6.808,5.707 16.933,8.836 25.765,4.969 2.207-.551 3.313,1.289 4.786,2.578 .367,5.707-6.258,3.312-8.832,4.418-29.817-1.657-53.008-27.239-63.868-53.1917 0-.7344-1.101,1.2891-1.656-.3672 .555-.7343.371-1.6562.371-2.7617-8.652-.5508-11.043,8.4688-16.75,12.8867-3.496,14.1679-7.914,31.4689 4.418,43.0629 21.719,26.32 60.184,36.808 92.207,25.214 2.762-4.234 5.887.922 8.832-3.128 3.317,3.496-2.574,4.05-2.758,7.179-6.074,5.336-6.074,13.25-6.996,20.797 .922,6.992 1.657,13.067 2.578,19.508 4.051,19.324 16.563,35.336 19.141,55.394 7.176,25.215 35.703,33.129 50.43,54.477-1.289,1.106-2.762-.184-3.867-.918-10.672-7.73-20.43-19.512-32.391-24.848-6.074,5.336-4.234,13.805-9.387,19.508-3.496,12.149-9.019,25.031-10.121,38.098-1.656,10.492-2.578,20.246-.922,31.473 .922,2.39 2.395,3.312 2.207,4.968 3.867.367 1.473,5.153 4.973,6.258-.371,1.102-1.106,1.84-2.395,2.207-13.25-10.676-12.515-30.551-12.699-46.562 3.129-20.43 10.121-39.2 18.035-57.606 1.657-4.414-4.23-5.519-4.785-8.832-4.785-22.824-20.613-41.594-23.926-64.418-30.918-3.129-61.285,2.395-93.125,4.969-41.043,5.523-81.351,13.254-116.132,34.051-15.829,7.175-30.922,18.769-43.438,31.101-4.601,6.442-7.363,15.094-6.992,22.637 13.984,12.148 20.613,29.633 21.164,47.852 .367,4.601-.551,8.281-.734,13.25 .367,11.41-.371,20.613-4.602,30.183-1.105.367-1.473-.918-2.211-1.473 4.602-16.378 2.945-31.468 1.473-47.851-1.84-7.914-5.52-16.195-8.465-24.293l-15.461-17.301c6.441-9.383.555-22.265-1.473-32.39-1.472-11.594-4.785-23.926-12.332-33.125-2.023-4.051-5.519-7.915-9.754-9.387-1.839,1.656-4.23,4.601-6.257,5.703-3.313-4.414 5.339-8.281 4.968-12.328 5.157-7.18 10.676-17.301 8.469-28.344-.922-3.312-3.496-6.074-4.601-9.387 2.761-2.023 3.312-8.648 8.097-6.074 23.004-21.348 56.133-48.953 42.149-84.2889-6.813-11.4102-15.278-22.8203-26.321-30.5508-8.465-3.6797-19.14-5.336-28.711-4.0508 14.172,13.4375 19.508,34.9688 12.332,53.7425-1.656,6.258-4.968,11.961-7.546,18.035-1.106,1.289-2.762,0-2.946-1.289 6.074-12.883 12.332-29.446 6.625-43.4338-3.863-9.0156-11.594-17.3008-17.301-24.8438-3.312-.7382-4.414-4.9687-7.543-6.625-6.257-5.8906-16.1988-7.1796-23.9292-5.707-3.4961,1.6563-8.6485,3.4961-9.3868,7.9141l-3.125,1.8398c5.7032,11.043 13.9844,22.2695 15.0899,35.8867 1.8398,13.805.7383,23.008-.3672,37.18-1.6563,1.101-.3672,3.679-2.7617,4.047l-.7344-1.289c.1836-23.555 4.6016-50.0591-16.3828-67.9106-7.9141-7.1758-17.8516-14.1719-28.5274-9.2031-13.6171,3.1289-26.3164,14.539-29.2617,28.7109-4.41795,24.1098-3.6797,50.4298 4.6016,73.0668" fill="#ac866c"/>
   <path d="m18.3633,164.309c-1.8399,8.464 4.7851,15.457 6.625,23.554 2.0234.188 1.6562,3.867 4.418,2.762l3.1289,5.152c-5.7071,5.707-8.4688,14.539-9.3868,21.352h-.9218c-1.2852,4.047-2.2071,7.176-3.1289,11.594-2.5743,10.304-3.3125,21.898-5.336,32.757-.5508.184-.3672.739-.3672,1.29h.3672c-.9219,27.976-1.1054,56.871 5.8906,85.578 8.0977,23.007 13.6172,48.406 24.293,70.859 2.0235,2.758 3.1289,6.625 5.336,9.754 14.3554,40.305 41.5976,68.828 71.7817,99.75 4.23,4.785 11.593,3.496 16.929,4.414 8.281-12.512 18.774-18.586 29.633-28.34-4.418-4.234 2.207-7.914 1.289-13.25 1.656-1.656 1.289-4.234 1.84-6.258-5.707-2.945-13.438-5.707-15.461-12.882 0-3.684-2.391-8.098.734-11.043 4.418-4.786 10.125-6.625 16.016-7.547 3.68-19.875 12.145-37.36 27.055-51.899 2.023.367 1.289-2.023 2.574-2.578 12.148-10.305 27.609-14.539 40.859-23.004 37.364-15.828 85.032-16.75 121.84.735 21.719,12.699 46.195,24.664 59.813,48.402 11.597,12.148 16.75,27.977 20.062,42.516-1.84,1.105-.183,2.578 0,4.05-.734,6.809-3.68,14.723-6.258,18.953 9.571-1.656 18.039,5.891 26.504,8.469 16.746,7.543 26.688,25.762 34.231,41.223 8.652,10.676 9.386,24.48 17.672,35.336 1.285,2.945 2.574,6.996 4.414,10.308 5.523,18.403 13.254,39.016 8.097,58.524-6.258,16.195-3.308,35.89-12.883,51.348-9.937,20.796-27.421,41.042-47.851,52.269l-.918,1.289c3.68,27.789-4.602,55.762-29.816,70.117-1.84-.183-4.418.555-5.708-1.289 0-3.863 4.418-3.129 6.625-4.414 8.469-10.492 22.086-18.406 23.559-33.312l1.289-25.766c-1.473-1.105 0-1.84-.367-3.496l-18.223,6.625c-3.129,5.703-1.101,12.699-3.496,18.219-.367,4.05-2.574,8.652-4.969,12.332-5.707,8.281-12.882,13.984-21.164,20.797-9.203,4.601-18.039,12.515-29.265,9.386l-2.207-2.578c4.23-3.312 8.281.735 12.883-2.207 .921-1.84 3.128-.371 4.418-1.472v-.739c-21.352-1.84-26.504-24.844-34.235-39.937-.551-1.84.367-6.809-3.129-4.969-12.515,13.621-31.656,15.828-49.508,12.516 2.395,11.777 2.395,22.636-7.546,30.918-6.442,4.418-12.145,13.253-19.508,11.964 3.496.368 7.363.735 9.754,3.129l-1.84,2.207c-23.742-.734-49.508-13.988-60.184-38.097l-1.84-7.914c-26.32,4.05-48.218-8.649-68.648-20.793-3.684,11.039-.738,23.738.918,34.965 6.074,16.75 9.57,34.785 18.59,50.429 21.164,30.367 55.031,46.008 92.574,38.649 14.91-3.868 30-7.547 43.066-16.012 8.098.184 10.125-9.938 17.118-11.965 1.839-2.941 5.156-4.047 8.464-4.414l1.293,2.207c-1.843,1.84-5.339,1.656-6.074,4.418 9.57,5.703 18.035,11.961 27.422,16.93 29.078,18.957 72.145,23.008 102.883,3.496 8.097-4.414 10.855-12.328 18.035-17.297 4.234-4.418 5.707-10.676 11.227-13.805 .921.735 2.207.555 2.945,1.84 0,1.106-1.473,2.024-.367,3.129 25.765,10.676 58.156,15.828 85.949,6.992 8.098-2.941 6.258-13.066 10.676-18.953 3.496-13.066 8.832-27.422 15.457-40.305 4.234-14.355 0-31.656-3.129-46.195-6.258-16.379-13.801-33.312-20.797-50.059-2.762-3.128-3.68-11.414-9.203-7.914-20.242,14.356-36.992,34.231-43.985,57.973-2.945,5.891-3.128,12.699-4.785,19.141-2.945,19.14-4.234,37.359.918,56.683-.734,2.762 1.289,5.891 0,8.836-2.758.918-3.496,5.887-6.808,2.758 3.679-6.07.738-10.488.922-17.301-4.418,1.473-8.469-.734-11.965-3.125 0-1.472 1.472-2.578 2.761-2.761l7.914,2.761c-.738-4.234.368-9.57-4.418-12.515-1.105-9.02-.367-16.75.918-25.215 3.129-24.844 13.438-47.481 27.977-66.805 3.684-5.523 8.285-11.226 6.996-19.144 8.649-26.317-.738-53.922-16.016-74.903-2.207-1.105-3.679-4.785-6.625-4.418-.367-2.578-4.414-1.84-3.496-5.336 4.235-.922 2.579-6.996 6.258-7.914l.922,2.207c1.84-2.574 6.07-1.656 8.281-4.418 2.578.739 2.207-2.941 4.418-2.758 11.227-11.042 19.692-25.031 21.715-40.675 1.473-1.285 2.027-4.231 4.418-4.047 3.313,1.656-.551,3.863-.734,5.703-3.129,13.621-7.18,26.504-15.645,37.73-.183,2.762-3.496,4.235-4.785,6.625 32.758,18.957 80.242,23.375 113.926,3.129 11.039-5.89 22.086-12.882 32.758-18.957-.184,1.106 2.211,1.84.922,2.946-20.43,9.203-35.524,31.472-57.239,37.359 12.699,11.41 29.446,15.645 44.723,21.719 21.719,4.968 43.801,8.832 67.359,5.336 32.578-4.231 59.266-22.637 85.582-42.145 14.727-13.988 31.289-28.344 43.805-45.644 9.937-17.852 20.613-35.52 25.398-55.395 6.993-16.379 15.094-33.863 17.301-52.269 .367-35.336-7.914-68.278-16.933-101.957 2.023-1.657-1.84-6.997 2.578-6.625 1.289,2.207 1.289,6.257 3.129,8.832 .734,9.937 6.808,18.773 7.547,27.421 2.207,7.364 6.253,13.989 9.753,20.797 5.52,1.106 8.832-6.258 11.961-9.203 19.141-24.476 20.981-55.394 27.61-85.578 2.207-24.844 2.941-45.824 2.574-69.566 1.84-3.313 5.152-6.075 7.18-9.387h.734c11.781-14.356 21.72-32.024 27.61-50.059 10.12-14.722 6.25-35.152 6.99-50.98-10.49-43.8009-40.303-80.6095-72.698-111.1603-4.418-1.2891-7.175-6.2578-11.41-7.9141-9.937-5.5234-20.062-12.33201-32.39-12.88279-11.965,3.4961-24.297,6.25779-34.235,15.08989-8.097,10.3086-11.965,24.4804-6.996,38.0976 2.395,13.9883 20.801,19.875 22.641,33.1289-2.578-.7383-2.762-4.0508-4.969-5.707-16.199-9.9375-25.582-26.5039-24.848-44.7227-.183-7.914 5.153-14.539 9.02-21.3476-14.723-3.8672-26.504,4.4179-38.652,9.3867-10.489,7.543-9.754,21.3477-7.543,33.125 5.335,11.2266 12.515,23.7422 24.476,30.1836 2.207.3672 3.496.1836 4.785,2.2109-1.105,2.9414-4.418,1.8399-6.258,1.2852-17.117-10.8555-32.757-29.4453-28.343-51.3477-10.676,3.6836-22.821,10.3086-28.711,21.7188-4.418,9.0195-1.656,20.2461 2.578,28.3437 19.141,21.7149 44.723,29.4449 67.914,42.5119 17.668,8.281 36.625,13.621 53.555,23.558 1.656,4.415 7.547,5.52 6.996,11.043-10.86,9.016-23.375,14.356-35.891,20.059-39.387,25.949-56.687,70.488-51.348,116.867 2.207,21.164 7.36,41.961 14.172,61.653-.554,1.289-.738,2.945-1.656,4.05-6.074-9.203-7.914-21.164-13.805-30.183-2.945-13.805-10.675-26.684-8.836-41.227-15.457-6.992-29.445-17.851-45.273-23.926-51.348-22.082-100.676-51.347-157.727-60.73-2.945,1.101-7.914-1.844-10.675-.371 7.175,27.609 17.668,57.055 11.593,86.871-3.496,25.211-14.171,47.297-18.218,72.141-4.418,8.285-7.364,17.668-11.043,25.765-1.106,2.028-4.051,3.5-3.496,6.074-5.157,10.125-12.52,17.485-11.965,30.184-.735,1.473-1.473.367-2.395,0v-6.992h-.367c-2.023-12.883 4.234-23.192 11.965-32.391 19.324-38.836 23.187-86.683 23.926-130.305 .183-22.453-6.442-46.007-11.598-69.199-3.863-6.258-2.574-11.593-7.359-17.668 5.886-5.336 7.175-13.617 11.961-19.508 4.05-16.562 8.097-33.679 8.285-51.347-.739-3.129-.188-8.098-.371-11.9611-4.231-10.6758-4.786-24.293-15.457-31.1055-3.868-3.8633-9.02-7.3594-13.805-9.7539-12.332-5.8867-26.688-5.5195-40.305-5.3359-25.031-5.5235-46.383-19.6914-69.57-29.6289-11.781-2.9454-23.008-11.4141-35.891-7.5469-7.73,2.3906-14.722,5.3359-20.429,11.5937l2.211.3672c-6.813,4.418-8.469,16.9336-10.676,26.1367-.367,5.8868 1.84,11.961 5.336,16.9297 1.472,4.6016 5.707,9.3867 8.468,13.6172 7.36,11.043 19.692,19.5117 33.313,20.8007 5.519.18 11.043.367 14.906-3.5 1.473-.367 2.762.551 3.129,1.84-9.019,11.598-25.949,4.602-37.18.922-15.273-7.7307-24.293-23.0041-31.839-36.8088-5.153-6.9922 2.211-20.4297-11.594-19.5078-9.387,1.1055-18.59,2.207-25.215,9.7539-8.281,14.1719-6.258,29.8164 3.129,42.8827 7.914,8.649 14.539,21.531 26.504,24.844 6.808,5.707 16.933,8.836 25.765,4.969 2.207-.551 3.313,1.289 4.786,2.578 .367,5.707-6.258,3.312-8.832,4.418-29.817-1.657-53.008-27.239-63.868-53.1917 0-.7344-1.101,1.2891-1.656-.3672 .555-.7343.371-1.6562.371-2.7617-8.652-.5508-11.043,8.4688-16.75,12.8867-3.496,14.1679-7.914,31.4689 4.418,43.0629 21.719,26.32 60.184,36.808 92.207,25.214 2.762-4.234 5.887.922 8.832-3.128 3.317,3.496-2.574,4.05-2.758,7.179-6.074,5.336-6.074,13.25-6.996,20.797 .922,6.992 1.657,13.067 2.578,19.508 4.051,19.324 16.563,35.336 19.141,55.394 7.176,25.215 35.703,33.129 50.43,54.477-1.289,1.106-2.762-.184-3.867-.918-10.672-7.73-20.43-19.512-32.391-24.848-6.074,5.336-4.234,13.805-9.387,19.508-3.496,12.149-9.019,25.031-10.121,38.098-1.656,10.492-2.578,20.246-.922,31.473 .922,2.39 2.395,3.312 2.207,4.968 3.867.367 1.473,5.153 4.973,6.258-.371,1.102-1.106,1.84-2.395,2.207-13.25-10.676-12.515-30.551-12.699-46.562 3.129-20.43 10.121-39.2 18.035-57.606 1.657-4.414-4.23-5.519-4.785-8.832-4.785-22.824-20.613-41.594-23.926-64.418-30.918-3.129-61.285,2.395-93.125,4.969-41.043,5.523-81.351,13.254-116.132,34.051-15.829,7.175-30.922,18.769-43.438,31.101-4.601,6.442-7.363,15.094-6.992,22.637 13.984,12.148 20.613,29.633 21.164,47.852 .367,4.601-.551,8.281-.734,13.25 .367,11.41-.371,20.613-4.602,30.183-1.105.367-1.473-.918-2.211-1.473 4.602-16.378 2.945-31.468 1.473-47.851-1.84-7.914-5.52-16.195-8.465-24.293l-15.461-17.301c6.441-9.383.555-22.265-1.473-32.39-1.472-11.594-4.785-23.926-12.332-33.125-2.023-4.051-5.519-7.915-9.754-9.387-1.839,1.656-4.23,4.601-6.257,5.703-3.313-4.414 5.339-8.281 4.968-12.328 5.157-7.18 10.676-17.301 8.469-28.344-.922-3.312-3.496-6.074-4.601-9.387 2.761-2.023 3.312-8.648 8.097-6.074 23.004-21.348 56.133-48.953 42.149-84.2889-6.813-11.4102-15.278-22.8203-26.321-30.5508-8.465-3.6797-19.14-5.336-28.711-4.0508 14.172,13.4375 19.508,34.9688 12.332,53.7425-1.656,6.258-4.968,11.961-7.546,18.035-1.106,1.289-2.762,0-2.946-1.289 6.074-12.883 12.332-29.446 6.625-43.4338-3.863-9.0156-11.594-17.3008-17.301-24.8438-3.312-.7382-4.414-4.9687-7.543-6.625-6.257-5.8906-16.1988-7.1796-23.9292-5.707-3.4961,1.6563-8.6485,3.4961-9.3868,7.9141l-3.125,1.8398c5.7032,11.043 13.9844,22.2695 15.0899,35.8867 1.8398,13.805.7383,23.008-.3672,37.18-1.6563,1.101-.3672,3.679-2.7617,4.047l-.7344-1.289c.1836-23.555 4.6016-50.0591-16.3828-67.9106-7.9141-7.1758-17.8516-14.1719-28.5274-9.2031-13.6171,3.1289-26.3164,14.539-29.2617,28.7109-4.41795,24.1098-3.6797,50.4298 4.6016,73.0668z" fill="none" stroke="#bf7e71" stroke-width="4.1667"/>
   <path d="m82.594 816.73c16.012 19.696 29.449 39.938 48.222 55.766 15.645 9.02 31.286-3.129 46.93-4.785 4.234-3.863 9.57-1.473 13.805-5.336-12.883-10.676-17.485-25.215-23.926-39.387-0.738-9.57-6.074-16.746-12.883-23.004-11.414-18.773-20.613-37.914-31.472-57.238-6.075-6.625-10.86 5.523-15.094 8.836-14.168 19.324-33.496 40.488-25.582 65.148" fill="#87583d"/>
   <path d="m147.195,729.5c14.172,19.324 34.235,35.52 56.688,42.883 6.258,2.941 13.433,3.312 20.058,4.969 21.536.918 38.286-9.754 55.399-19.508 11.781,1.101 19.14-9.571 28.344-15.094l8.836-13.801c-2.028-2.394 0-5.89 0-7.914-2.762-11.414 3.128-27.238-8.469-35.89 .922-4.047-4.969-3.129-4.414-6.625-6.446-7.547-16.383-8.098-23.926-13.805-26.688-13.434-57.793-29.078-69.941-58.524-11.227-20.246-18.036-42.144-20.059-65.152 0-7.914 1.473-19.324 4.047-27.422 .371-3.312-2.945-6.258-1.84-8.832-4.602,1.106-11.227.918-14.539,5.336-13.066,6.258-23.559,19.141-31.84,31.473l-4.418,7.914h.367c-3.129,15.09-7.914,28.894-11.593,44.351-4.231,20.43-9.938,40.86-8.832,62.946 2.757,26.683 10.121,51.347 26.132,72.695" fill="#87583d"/>
   <path d="m161.367,474.602c2.946,2.394 5.891,5.89 9.754,4.418 1.473-7.364-.918-13.25.551-20.797-4.231,2.761-10.488,2.023-12.883,7.175 .184,2.762 1.106,6.442 2.578,9.204" fill="#bdbdbd"/>
   <path d="m173.332,502.023c4.414-1.656 8.648-3.679 13.801-3.496-1.656-15.461 15.094-21.347 24.293-30.918 15.461-6.257 29.449-15.277 47.117-16.011 27.609-6.809 62.391-6.809 90.367,1.656 6.809,4.23 14.723,5.519 20.797,11.226 2.945-1.839 4.418,2.024 5.707,3.497 7.363,6.074 12.883,14.539 18.774,22.086 1.285.55 1.656-1.473 2.941-.739 1.289,2.578-.918,5.524 2.211,7.364 10.676-3.497 21.715-5.708 33.68-5.708 2.578-6.441 4.418-14.539 3.679-22.082-7.726-29.632-23.926-57.976-51.531-73.617-37.914-27.054-90-28.343-132.883-11.965-17.851,4.235-33.129,14.172-48.402,24.848-8.836,7.359-16.195,16.379-19.879,27.051-3.496,4.234-3.68,11.043-6.625,15.461-2.762,13.437 0,27.605-1.289,41.594-.551,3.496-2.391,6.257-2.758,9.753" fill="#196f82"/>
   <path d="m211.43 446.26c4.051-0.367 6.445-3.863 8.101-7.176 1.657-7.18-4.601-11.043-5.339-17.117-5.153-2.758-12.149-1.285-16.012 2.211-2.024 4.414-10.121 9.383-5.336 14.906l18.586 7.176"/>
   <path d="m200.016,496.32c32.945-36.441 81.902-38.836 129.019-35.523-1.66,1.656-4.601.738-6.812.922 16.011.734 28.711,10.676 43.988,11.961 .367-1.653 2.023-2.575.922-3.864-5.707-1.839-9.02-6.441-15.094-7.175-1.473-6.075-10.488-6.258-16.012-8.469-43.617-8.281-87.054-.184-124.601,18.59-6.254,7.547-18.403,10.121-19.508,20.98l8.098,2.578"/>
   <path d="m195.97 436.5c4.969 2.027 10.304 4.234 15.457 4.418 1.105-4.785 2.578-11.777-1.285-16.012-3.313 0-6.813-0.183-9.203 1.84-2.208 2.395-2.946 6.074-5.34 7.914l0.371 1.84" fill="#bdbdbd"/>
   <path d="m198.176,502.023c-.184-.367.183-.55.554-.734l-1.843-.555c.371.555.183,1.844 1.289,1.289" fill="#fff"/>
   <path d="m239.402,634.168 8.836,6.992c2.575-2.762 3.68-4.969 7.543-5.152 3.317-2.945 5.707-6.813 9.754-8.469v-1.289c-.734.188-1.285-.551-1.652-.918 1.472-3.496-2.762-6.809-3.129-10.676-1.473-3.863-6.629-1.84-9.758-3.129-4.23-1.101-9.937-2.941-11.043-7.543-4.601-7.73.188-15.461 4.789-22.086 12.512-13.433 32.942-18.035 51.348-12.515 2.39,2.023 7.547,2.945 4.418,6.625-16.934-5.887-38.836-5.153-51.719,8.097-3.863,4.235-7.73,10.86-5.336,16.379 1.289,3.684 4.047,6.446 7.914,6.996 8.465.735 12.516-6.257 19.141-9.753 15.828-8.653 36.625-11.227 55.398-7.914 2.942,2.39 6.071,4.968 6.071,8.464 6.812,6.442 4.418,17.118 12.882,22.086 16.567-20.797 18.961-47.113 23.559-72.695 5.156-17.852 7.73-37.363 21.719-51.348-22.27-12.699-44.356-25.949-70.86-27.976-34.23-6.809-66.254,4.969-95.336,17.301-6.07,5.152-13.25,10.859-16.929,18.218-5.891.922-3.867,7.547-7.914,10.125 .734,5.52-1.106,12.145-1.84,18.219-2.578,38.648 14.168,76.379 42.144,101.961" fill="#87583d"/>
   <path d="m253.207,839.371c9.02,3.129 18.035,6.442 28.344,6.629 23.742,1.285 43.25-13.621 66.808-7.547 15.09,10.305 32.758,13.985 49.692,19.875h4.051c-17.856-7.543-36.442-12.883-52.825-23.926-25.031-5.336-46.379,9.387-70.488,8.098-22.269-.918-41.41-16.562-54.848-32.941-.918-1.84-1.101-4.786-3.496-5.153-1.84,1.102-.55,3.68.368,5.153 6.996,13.433 20.246,21.898 32.394,29.812"/>
   <path d="m252.652,418.285c3.684,2.578 9.203,4.602 13.438,1.84 4.785-2.574 7.73-4.418 9.203-9.387 4.969-7.543-6.258-11.226-10.676-14.539-2.39-1.289-6.441-1.289-8.836,0-3.679,4.051-5.152,7.364-5.703,12.883 .551,3.129.551,6.625 2.574,9.203"/>
   <path d="m308.6 674.47h0.918c11.411-14.727 22.454-31.106 30.922-46.934-20.613-4.785-38.465 1.106-58.527 1.656-8.836 3.684-18.773 4.602-25.582 12.883l-3.129 1.473c17.301 12.148 39.203 16.012 55.398 30.922" fill="#7c5137"/>
   <path d="m255.781,415.156c5.524.367 12.516-3.129 15.645-8.281-.918-3.129-4.602-4.418-7.176-5.891-2.023-.918-4.785-1.839-7.18-.734-2.574,4.23-4.418,10.859-1.289,14.906" fill="#bdbdbd"/>
   <path d="m274.922,819.313c13.621,2.023 27.242-10.122 33.129-21.165 3.867-6.257.371-13.804-.367-20.429-10.121-2.578-18.036-10.86-29.262-8.465l-15.461,5.887c3.129,4.418 4.969,11.41 3.496,17.3-.734,6.442-6.441,10.493-11.961,13.25 4.231,7.18 13.801,8.653 20.426,13.622" fill="#fff"/>
   <path d="m269.035,624.043c5.52-1.102 11.594-3.313 17.301-4.969 15.273-2.023 31.656-3.496 47.113-2.207 .739.367 1.473,1.285 2.578.918l-11.043-22.269c-8.464-4.231-20.062-1.102-28.894-.735-11.594,2.578-23.375,4.418-32.207,13.617 1.101,5.524 4.785,9.942 5.152,15.645" fill="#dd7b6b"/>
   <path d="m360.504,762.629c4.601-3.316 9.019-7.18 10.492-12.883l-1.656-2.945c-15.828-3.684-30.367-10.676-43.434-20.981l-2.211.918c-7.175,11.41-13.988,24.664-27.054,32.024l-5.887,2.945c20.613,11.043 48.953,11.961 69.75.922"/>
   <path d="m328.48,421.047c7.18.367 15.278.183 18.223-6.625-4.051-6.442-8.281-12.887-9.387-20.43-2.023-2.211-6.441-1.656-8.836-.554-5.335,2.761-7.914,9.757-14.171,11.964-1.84.368-1.469,2.391-2.207,3.68 .918,8.469 10.121,9.754 16.378,11.965"/>
   <path d="m319.648,411.66c6.442,2.207 15.274,5.336 21.715.918-4.968-4.785-3.863-18.586-12.883-15.09l-11.96,11.965 3.128,2.207" fill="#bdbdbd"/>
   <path d="m323.695,710.91c1.289,2.762.739,6.629 2.946,9.203 6.257,4.785 11.593,9.387 19.14,12.516 4.969,4.047 11.965,5.519 18.223,7.914 4.414,0 7.359,3.496 11.961,3.129 15.277,10.121 35.336,9.57 53.191,12.332 13.617-1.477 27.973-6.074 37.543-16.75 23.192-11.227 31.656-37.176 44.356-56.867 .922-8.102 5.156-16.75 6.625-24.664 3.5-12.145 2.945-24.844 2.211-36.438-1.106-.922-1.289-1.472-.368-2.578-3.128-20.613-10.859-39.203-16.933-58.527-12.149-18.957-25.399-42.512-45.645-55.395-7.359-2.945-14.355-10.121-23.004-8.097-10.125-3.313-19.878,2.207-29.632,3.679-14.172,5.891-22.821,21.719-26.688,35.891-6.625,14.351-6.808,32.207-10.121,47.297-2.578,1.289-.555,5.152-1.84,6.258-4.234,14.722-12.883,28.527-19.879,41.226-4.785,4.785-6.258,11.777-11.043,16.379l.367,1.285c-3.496,3.5-5.703,7.547-6.625,11.965-5.335,8.465-13.8,18.219-9.753,29.262 2.207,6.808 4.785,13.804 4.968,20.98" fill="#87583d"/>
   <path d="m385.168,444.973c3.863.918 7.914.183 11.227-1.289 4.418-4.418 4.418-11.043 4.785-16.567-.367-3.129-2.578-5.887-4.785-7.91-9.754.918-17.485,7.176-27.055,6.625-2.578,9.203 8.281,16.379 15.828,19.141"/>
   <path d="m385.719,439.633c4.051.183 9.941.367 11.41-4.969 .371-3.312 1.66-6.992-2.207-8.832-5.891-1.656-10.859,1.102-15.828,2.758 .551-.184.738.555 1.289.738 .551,2.207-3.68,3.496-.922,5.336l6.258,4.969" fill="#bdbdbd"/>
   <path d="m405.6 808.27c10.304-3.497 20.058-13.067 26.687-22.637 4.598-7.363 6.07-16.934 5.153-26.133-12.516 5.52-29.45 2.941-43.25 2.207 3.312 3.68 4.968 7.914 6.07 12.516-1.656 7.543-5.703 18.586-15.457 20.425l-1.84 1.29c5.703 7.546 14.168 11.964 22.637 12.332" fill="#fff"/>
   <path d="m391.059,428.59-1.844-.551 .371.551h1.473"/>
   <path d="m389.22 447.55h2.5781v0.55469h-2.5781v-0.55469z"/>
   <path d="m412.223,488.406c7.73.918 15.644-4.234 20.429-11.043 1.84-1.656.368-3.867-.367-5.336-2.394-2.578-5.707-2.027-8.101-4.418-5.52,0-11.411-4.05-16.379,0-1.657,3.864-4.602,8.282-2.207,12.7l6.625,8.097"/>
   <path d="m415.719,472.762-3.864.918c.551,3.683.368,7.73 3.497,9.754 6.441.738 10.492-3.864 14.171-7.911-2.023-2.578-6.074-1.843-8.468-4.418-3.125.184-7.727-2.394-9.754.368 1.656,0 2.945.922 4.418,1.289" fill="#bdbdbd"/>
   <path d="m604.184,195.41c-1.106.551-2.024-1.472-3.129-2.207 3.863,7.543 12.515,9.938 18.218,15.09 13.622,5.336 28.899,6.992 42.516,12.883 41.227,16.933 81.719,37.543 122.758,55.765 20.062-13.621 36.629-35.152 34.601-61.101-4.968-31.106-38.464-40.676-56.316-63.863-23.191-31.473-62.023-44.723-99.203-36.254-5.52,5.336-17.668,4.047-16.93,14.535 .367,14.543 13.25,24.113 24.293,33.312 9.203,6.625 20.43,7.914 30.184,12.883v.738c-25.582-.921-51.535-19.695-59.262-43.433-8.469-1.289-18.773-1.84-24.848,4.969-3.863,7.175-2.39,17.113.368,24.843l-.918.739c4.601,11.226 12.699,22.082 24.476,26.683l13.25,1.84 1.289,1.289c-6.258,4.602-15.273.738-21.715-1.84-15.461-8.281-22.824-25.949-23.925-42.511-3.317,9.57-8.836,18.585-14.172,27.972 2.574,6.442 3.496,12.149 8.465,17.668" fill="#a37b60"/>
   <path d="m604.184,195.41c-1.106.551-2.024-1.472-3.129-2.207 3.863,7.543 12.515,9.938 18.218,15.09 13.622,5.336 28.899,6.992 42.516,12.883 41.227,16.933 81.719,37.543 122.758,55.765 20.062-13.621 36.629-35.152 34.601-61.101-4.968-31.106-38.464-40.676-56.316-63.863-23.191-31.473-62.023-44.723-99.203-36.254-5.52,5.336-17.668,4.047-16.93,14.535 .367,14.543 13.25,24.113 24.293,33.312 9.203,6.625 20.43,7.914 30.184,12.883v.738c-25.582-.921-51.535-19.695-59.262-43.433-8.469-1.289-18.773-1.84-24.848,4.969-3.863,7.175-2.39,17.113.368,24.843l-.918.739c4.601,11.226 12.699,22.082 24.476,26.683l13.25,1.84 1.289,1.289c-6.258,4.602-15.273.738-21.715-1.84-15.461-8.281-22.824-25.949-23.925-42.511-3.317,9.57-8.836,18.585-14.172,27.972 2.574,6.442 3.496,12.149 8.465,17.668z" fill="none" stroke="#bf7e71" stroke-width="4.1667"/>
   <path d="m889.641,607.48c14.722-9.753 21.718-27.976 24.293-43.8 1.105-7.731 0-15.645-.918-23.008-8.102,18.957-23.743,35.336-35.34,51.902l.371.367c-4.234,3.129-8.285,6.442-11.965,11.043-6.074,8.832-15.461,13.985-22.637,21.348-1.289-.551-3.312.367-3.867,2.207 18.957.371 38.098-4.23 50.063-20.059" fill="#87583d"/>
   <path d="m961.78 33.27-1.84-2.207 0.551 0.918 1.289 1.289" fill="#fff"/>
   <path d="m499.734,848.281c.918.735 2.207.551 2.942,1.84 0,1.102-1.469,2.024-.367,3.129 25.765,14.355 56.871,21.348 84.664,12.516 8.097-2.946 7.543-18.59 11.961-24.481 3.496-13.066 8.836-27.422 15.461-40.305 4.23-14.355 0-31.656-3.129-46.195-6.258-16.379-13.805-33.308-20.797-50.058-2.762-3.129-3.684-11.411-9.203-7.914-20.246,14.355-36.993,34.234-43.989,57.972-2.945,5.891-3.129,12.699-4.785,19.141-2.945,19.14-4.23,37.363.922,56.687-.738,2.758 1.289,5.887 0,8.832-2.762.922-3.5,5.891-6.812,2.762l-26.868,6.074" fill="#87583d"/>
  </g>
 </g>
</svg>
