<?xml version="1.0" encoding="UTF-8" standalone="no"?>
<!-- Created with Inkscape (http://www.inkscape.org/) -->

<svg
   version="1.1"
   id="svg1"
   width="1848.5127"
   height="723.5119"
   viewBox="0 0 1848.5127 723.5119"
   sodipodi:docname="138d.svg"
   inkscape:version="1.3.2 (091e20ef0f, 2023-11-25)"
   xmlns:inkscape="http://www.inkscape.org/namespaces/inkscape"
   xmlns:sodipodi="http://sodipodi.sourceforge.net/DTD/sodipodi-0.dtd"
   xmlns="http://www.w3.org/2000/svg"
   xmlns:svg="http://www.w3.org/2000/svg">
  <defs
     id="defs1" />
  <sodipodi:namedview
     id="namedview1"
     pagecolor="#ffffff"
     bordercolor="#000000"
     borderopacity="0.25"
     inkscape:showpageshadow="2"
     inkscape:pageopacity="0.0"
     inkscape:pagecheckerboard="0"
     inkscape:deskcolor="#d1d1d1"
     showgrid="false"
     inkscape:zoom="0.37785074"
     inkscape:cx="922.32186"
     inkscape:cy="453.88293"
     inkscape:window-width="1920"
     inkscape:window-height="1011"
     inkscape:window-x="0"
     inkscape:window-y="0"
     inkscape:window-maximized="1"
     inkscape:current-layer="layer8" />
  <g
     inkscape:groupmode="layer"
     id="layer8"
     inkscape:label="Layer 1">
    <path
       id="path1"
       style="display:inline;fill:#000000"
       d="M 794.62064,42.963572 C 624.25779,44.843583 503.34731,86.915131 498.98392,147.89912 c -0.85764,11.98654 2.00488,21.37105 10.31055,33.78906 8.66213,12.95097 19.94652,23.49211 55.41601,51.77539 31.64466,25.23338 54.22948,45.28415 69.8125,61.97852 40.46566,43.35152 71.77834,90.2655 81.80274,122.55859 5.92706,19.09376 6.28492,17.18166 -6.15625,32.81445 -11.58671,14.55914 -25.00542,27.82453 -31.5918,31.23047 l -3.91015,2.02344 v -8.56641 -8.56835 l -6.11719,-0.48633 c -3.36363,-0.26752 -6.40484,-0.0157 -6.75977,0.55859 -1.31744,2.13166 -13.85987,7.6699 -23.2832,10.28125 -12.86897,3.56617 -27.92297,4.69735 -37.83203,2.84375 -8.51867,-1.59351 -19.77853,-6.59027 -19.82813,-8.79883 -0.0522,-2.3249 12.21013,-9.71762 17.63868,-10.63476 4.47644,-0.75629 5.33414,-1.46176 6.0332,-4.95703 1.37064,-6.85324 1.09934,-7.20841 -8.29102,-10.89258 -18.79251,-7.37299 -40.2028,-24.42112 -56.33398,-44.85547 -4.70823,-5.96419 -8.71725,-11.27068 -8.9082,-11.79297 -0.19095,-0.52232 9.47086,-0.71351 21.4707,-0.42383 l 21.81836,0.52735 0.80664,-5.81836 c 0.72917,-5.25267 0.45784,-6.0677 -2.80274,-8.37696 -7.01986,-4.97172 -21.20388,-20.40364 -41.76562,-45.4414 -11.44244,-13.93332 -22.08838,-26.47606 -23.6582,-27.87305 -1.56982,-1.39699 -2.85547,-3.08598 -2.85547,-3.75195 0,-0.69615 10.1966,-1.03301 23.98828,-0.79297 l 23.98828,0.41797 1.3457,-3.86524 c 1.89201,-5.43497 1.67138,-8.80078 -0.57422,-8.80078 -4.76753,0 -87.32113,-44.12542 -87.39453,-46.71289 -0.0111,-0.39189 1.62982,-1.70127 3.64649,-2.91016 6.16698,-3.69678 18.41969,-14.6792 24.19336,-21.68554 l 5.47265,-6.64258 -3.89648,-3.89648 c -3.88994,-3.88994 -3.90952,-3.89212 -11.66602,-2.2129 -6.94208,1.50291 -68.44424,3.80578 -68.43164,2.5625 0.003,-0.27676 1.49827,-8.00326 3.32227,-17.16992 1.82401,-9.16666 3.71037,-21.91537 4.19336,-28.33203 0.87813,-11.66617 0.87919,-11.66735 -2.32032,-11.68555 -1.75981,-0.01 -4.40051,-0.33337 -5.86718,-0.71875 -2.15358,-0.56585 -3.38227,0.68187 -6.39063,6.48438 -5.2722,10.16901 -15.12884,20.70563 -29.3457,31.37109 -14.3112,10.73623 -30.22591,20.69596 -31.32031,19.60157 -0.42004,-0.42004 -1.0297,-12.39429 -1.35547,-26.60938 l -0.59375,-25.8457 -3.9961,-0.79883 c -7.57045,-1.5141 -8.49344,-1.07614 -10.2539,4.86719 -3.32483,11.22463 -13.61982,35.88272 -18.35547,43.96289 -5.84969,9.98096 -13.1457,18.07833 -23.39649,25.96679 -5.32102,4.09477 -7.88018,5.37054 -8.33789,4.15625 -11.65732,-30.92682 -22.64887,-63.9901 -27.33593,-82.21875 -1.48603,-5.77936 -1.50768,-5.79596 -6.4043,-4.89648 -2.70217,0.49638 -5.37031,1.34188 -5.92773,1.87891 -0.55742,0.53703 -0.46221,3.94188 0.21093,7.56445 3.82335,20.57587 2.83996,43.34906 -2.6582,61.55469 -2.62967,8.7074 -19.3466,49.29344 -21.16602,51.38867 -1.24507,1.43383 -19.41828,-39.06203 -26.18945,-58.35742 -6.04141,-17.21587 -5.62228,-16.79438 -14.65625,-14.69727 -2.50339,0.58113 -2.73728,1.36806 -2.16797,7.29297 0.90791,9.44874 -1.66537,31.81508 -7.90625,68.73828 -6.74485,39.9049 -7.56496,63.07187 -2.67578,75.48828 2.94308,7.47415 2.94247,7.49863 0.39258,13.44727 -5.11553,11.93404 -8.29177,28.58765 -9.53906,50.00586 -1.35996,23.35273 -2.24061,28.05839 -8.01563,42.86914 -10.68711,27.40839 -38.38481,60.88102 -81.693358,98.72461 -18.804325,16.43147 -22.767578,21.79168 -22.767578,30.78906 0,11.15143 9.090008,19.66604 26.513672,24.83984 11.033638,3.27636 34.841424,3.28863 43.757814,0.0215 l 6.42773,-2.35547 6.00586,5.53711 c 3.3039,3.04543 9.41246,7.12518 13.57422,9.06445 6.65639,3.10169 9.5898,3.5842 24.38281,4.00977 14.00079,0.40277 17.57336,0.0955 21.33399,-1.83203 8.39049,-4.30069 8.70259,-7.95653 0.84961,-9.9375 -10.9965,-2.77395 -21.70337,-7.00823 -24.8418,-9.82422 -1.74643,-1.56699 -4.88751,-6.43222 -6.98047,-10.8125 l -3.80469,-7.96485 15.0918,-14.70117 c 8.30055,-8.08637 20.70024,-21.00313 27.55664,-28.70312 6.8564,-7.7 13.55821,-14.54106 14.89063,-15.20313 1.33241,-0.66206 2.42187,-1.65514 2.42187,-2.20703 0,-0.55188 1.95065,-3.4225 4.33399,-6.37891 2.38332,-2.95641 8.81851,-11.16216 14.30078,-18.23437 11.15407,-14.38894 20.17398,-23.31055 23.56836,-23.31055 1.98326,0 1.92337,0.36993 -0.48633,3 -7.38521,8.06066 -17.7168,37.20073 -17.7168,49.97071 0,5.72045 -1.65181,16.14906 -4.70508,29.69726 -2.54642,11.29924 -5.96093,40.23281 -5.96093,50.51172 0,15.49029 7.82398,26.61945 23.18945,32.98242 3.01225,1.2474 6.68358,4.12133 8.16016,6.38672 4.68977,7.19514 7.96846,6.25631 19.65234,-5.62109 5.68517,-5.77934 13.2312,-12.08112 16.76758,-14.00586 7.50801,-4.08638 20.01093,-7.58789 27.09765,-7.58789 4.77692,0 5.02242,-0.22468 6.16602,-5.66602 0.65502,-3.11667 0.99996,-6.04272 0.76758,-6.50195 -0.23239,-0.45924 -7.48186,-3.60516 -16.11133,-6.99024 -18.4702,-7.24528 -24.35742,-10.59425 -24.35742,-13.85937 0,-3.44805 7.21739,-17.97739 20.6875,-41.64844 34.2126,-60.1219 42.77627,-92.17768 30.86328,-115.5293 -1.81575,-3.55918 -5.16569,-8.24152 -7.44336,-10.40429 l -4.14063,-3.93164 5.27735,-5.40039 c 12.00817,-12.2875 18.33728,-36.14263 14.55859,-54.87305 l -1.91015,-9.47266 6.7207,1.78907 c 8.56279,2.28038 30.15211,2.33665 38.76367,0.10156 l 6.62305,-1.71875 -0.45703,25.85742 c -0.97032,54.76221 8.18591,102.24197 27.70312,143.64648 32.10203,68.10245 107.17959,132.22426 185.63672,158.54688 l 13.43164,4.50586 -5.82422,2.93555 c -15.6274,7.87489 -22.98608,17.74033 -25.2207,33.80664 -1.73616,12.48253 0.11245,19.57181 6.98437,26.77343 4.24346,4.44706 5.02719,4.70541 20.41407,6.69922 8.79999,1.14029 24.39935,2.41568 34.66601,2.83594 10.26665,0.42026 19.08863,1.02297 19.60352,1.33789 2.58654,1.58199 47.45289,1.9857 59.89648,0.53906 17.29962,-2.01118 23.5526,-4.96091 26.40039,-12.45117 1.72468,-4.53624 1.9022,-27.1295 0.26367,-33.55664 -0.74257,-2.91275 -1.23265,-5.38146 -1.08984,-5.48633 0.14281,-0.10487 8.05847,0.42522 17.5918,1.17969 31.80589,2.51713 71.86427,-2.40868 99.41406,-12.22656 l 11.41406,-4.06836 16.58594,1.48047 c 9.12254,0.81419 34.58596,1.54113 56.58594,1.61523 33.54966,0.11293 41.75502,-0.24485 50.87695,-2.21484 9.9142,-2.14108 11.5552,-2.17046 18.5684,-0.34375 4.2314,1.10213 12.388,2.39461 18.125,2.87304 5.7369,0.47844 10.4296,1.26053 10.4296,1.73633 0,1.37912 -11.5279,4.08399 -17.4042,4.08399 -9.7567,0 -25.135,10.09155 -31.2325,20.49609 -2.0878,3.56264 -3.8546,9.50993 -4.7617,16.03125 -1.7361,12.48254 0.1144,19.57182 6.9863,26.77344 4.2414,4.44482 5.03,4.70435 20.3438,6.6875 8.7626,1.13476 23.7632,2.39784 33.334,2.80664 9.5707,0.4088 20.701,1.14921 24.7343,1.64648 13.3923,1.65113 43.899,1.74993 57.0176,0.1836 17.9034,-2.13763 24.825,-6.12523 26.2539,-15.12891 0.5846,-3.6837 1.8777,-33.43296 2.0118,-46.26953 l 0.051,-4.77539 8.334,1.74609 c 23.777,4.97859 74.9982,10.46255 111,11.88477 41.3809,1.6347 94.3404,-3.7416 133.502,-13.55274 l 13.5019,-3.38281 21.2383,5.33203 c 49.861,12.51847 116.9858,20.02318 181.0898,20.24414 l 20,0.0684 -6.1308,3.19336 c -3.3719,1.75666 -12.6713,5.42738 -20.666,8.15625 -7.9947,2.72888 -14.6588,5.03576 -14.8086,5.12696 -0.1497,0.0912 -0.6759,2.69406 -1.1699,5.7832 l -0.8985,5.61523 12.5039,-0.0234 c 12.3142,-0.0235 28.6217,-2.03144 90.5039,-11.14844 47.6132,-7.0148 71.1034,-9.17975 100,-9.21485 26.3521,-0.032 45.1582,2.09219 57.7012,6.51758 2.915,1.02848 5.7135,1.86914 6.2188,1.86914 0.9625,0 5.414,-8.63426 5.414,-10.50195 0,-1.81038 -27.6969,-14.30479 -44.668,-20.15039 -63.5802,-21.89995 -146.7183,-38.19262 -202.3769,-39.66016 l -26.375,-0.69531 0.8945,5.83789 c 0.4924,3.21079 1.0282,6.00283 1.1895,6.20508 0.1613,0.20225 5.6265,1.24787 12.1465,2.32422 13.1199,2.16591 25.6636,5.29931 26.9922,6.74219 1.3864,1.50575 -50.8656,-0.55116 -69.8028,-2.74805 -25.4776,-2.95564 -74.2426,-12.87258 -79.6094,-16.18945 -0.7189,-0.4443 2.7978,-3.09147 7.8164,-5.88282 39.3252,-21.87261 73.5184,-56.94275 92.6836,-95.06054 6.903,-13.7294 15.0108,-38.21387 17.9551,-54.22071 3.3297,-18.10264 3.3227,-53.53615 -0.014,-71.33203 -7.3706,-39.31548 -23.8912,-70.62463 -52.0781,-98.69336 -21.145,-21.05629 -42.4462,-34.3518 -69.2519,-43.22461 -58.7145,-19.43466 -131.6804,-10.2724 -182.4649,22.91211 -41.6151,27.19298 -68.5812,69.1921 -76.4082,119.00586 -4.5798,29.14799 -1.0188,69.58391 8.7637,99.51953 2.1665,6.62986 3.9394,12.32352 3.9394,12.65235 0,1.45021 -31.8036,-15.79272 -34.58,-18.74805 -3.4342,-3.6556 -2.9294,-7.42383 0.9941,-7.42383 2.8691,0 6.6712,-10.11589 4.5859,-12.20117 -0.6631,-0.66315 -10.7589,-3.23086 -22.4355,-5.70508 -23.2548,-4.92757 -36.5645,-9.31452 -36.5645,-12.05273 0,-2.70851 9.0637,-10.05413 13.5,-10.94141 3.8501,-0.77002 7.834,-5.9358 7.834,-10.1582 0,-2.43052 -17.5727,-7.69461 -43.1621,-12.92969 -35.6569,-7.2947 -34.9423,-6.86817 -26.7558,-15.92969 4.884,-5.40594 12.8519,-8.92712 21.9179,-9.68945 4.5358,-0.3814 4.6766,-0.56486 5.0645,-6.54688 l 0.4004,-6.15625 -9.7324,-0.95898 c -30.4337,-2.99836 -68.428,-13.54728 -92.877,-25.78906 -19.2369,-9.63207 -26.8552,-15.71907 -30.9414,-24.71875 -3.1588,-6.95755 -3.1748,-10.786 -0.076,-17.60742 9.7922,-21.55745 53.4771,-35.51773 98.0137,-31.32227 29.3268,2.76265 59.5164,11.00462 85.9941,23.47852 6.8815,3.24193 13.0185,5.89453 13.6387,5.89453 0.6203,0 2.3319,-2.36122 3.8047,-5.24805 l 2.6777,-5.25 -10.3164,-5.63477 c -33.1504,-18.10847 -56.3164,-41.52694 -56.3164,-56.92773 0,-27.83907 54.7145,-39.49252 125.875,-26.81055 25.8772,4.61175 75.8871,18.79579 95.7246,27.15039 1.7499,0.73696 2.7365,-0.17326 4.3321,-3.99218 1.1368,-2.72058 2.0683,-5.3437 2.0683,-5.83008 0,-0.48638 -3.7507,-2.73915 -8.334,-5.00586 -25.2816,-12.50314 -36.3498,-29.09782 -26.8984,-40.33008 4.3479,-5.16722 16.9942,-11.16329 29.8984,-14.17578 12.9699,-3.02785 47.2503,-4.08502 67.0059,-2.06641 42.6725,4.36029 94.1909,17.89875 147.2949,38.70703 9.6991,3.80052 18.042,7.02371 18.5391,7.16211 0.4972,0.13839 1.965,-2.24558 3.2617,-5.29882 l 2.3574,-5.55274 -28.7148,-12.87305 C 1320.0978,112.99395 1059.428,47.783964 829.33353,43.129588 817.55632,42.891357 805.97816,42.838238 794.62064,42.963572 Z M 1423.3335,392.93428 c 25.858,0.0833 49.6224,10.44475 67.545,29.44921 15.531,16.46858 23.8055,37.64602 23.7675,60.83008 -0.025,15.19575 -2.6407,26.48539 -9.2988,40.11914 -15.7008,32.15049 -42.5423,49.14946 -88.2656,55.89649 v 0 c -7.5614,1.11578 -21.8876,2.43142 -31.836,2.92383 l -18.0879,0.89453 -4.791,-5.85743 c -12.2004,-14.91467 -22.32,-35.18155 -27.9062,-55.88671 -4.464,-16.55898 -4.4657,-45.66894 0,-59.97071 5.3014,-16.97828 11.6439,-27.50204 24.1758,-40.11133 9.4816,-9.54013 13.4814,-12.4789 24.0371,-17.66406 15.7694,-7.74615 26.9471,-10.66724 40.664,-10.62304 z"
       transform="translate(-42.153844,-42.897166)" />
    <path
       id="path2"
       style="display:inline;fill:#00aa00"
       d="m 784.04838,55.58076 c -15.85478,0.195732 -30.22006,0.724159 -42.04883,1.609375 -92.84515,6.948143 -160.69021,23.949019 -200.03321,50.126955 -28.11141,18.70469 -36.85864,38.78535 -26.47265,60.76953 6.0431,12.79155 16.90205,23.51777 53.25976,52.60937 63.24393,50.60459 95.77271,84.47325 129.1875,134.50977 32.61186,48.83413 43.08297,88.15449 31.92188,119.86133 -1.59694,4.5366 -9.58153,23.03307 -10.66016,24.69336 -0.15234,0.23449 -2.71157,-0.81677 -5.68554,-2.33399 l -5.40625,-2.75781 3.73242,-8.33398 c 3.73636,-8.34226 7.18973,-18.36967 8.7539,-25.42383 0.69543,-3.13632 -0.4738,-2.25689 -7.07226,5.33203 -18.48037,21.25433 -29.02321,28.74322 -49.47266,35.14258 -6.93748,2.17099 -13.44242,3.94726 -14.45703,3.94726 -1.18416,0 -0.17097,-2.33055 2.83008,-6.50781 5.2852,-7.35662 9.37175,-14.80598 8.56445,-15.61328 -0.2973,-0.2973 -4.09614,0.90427 -8.4414,2.66992 -11.37344,4.62146 -26.67193,7.45375 -40.15821,7.43555 -18.91421,-0.0255 -32.67586,-4.85062 -44.0625,-15.45117 l -6.32812,-5.89063 10.19922,-9.66406 10.20117,-9.66406 -11.24024,-7.11329 c -20.62535,-13.05039 -42.00194,-36.17769 -59.69726,-64.58593 -3.55788,-5.71187 -6.15169,-10.70182 -5.76367,-11.08985 0.38803,-0.38802 3.91363,0.29045 7.83593,1.50977 4.14301,1.28793 14.04687,2.52304 23.63282,2.94531 l 16.5,0.72656 -12.5,-14.5957 c -6.87538,-8.02784 -18.97741,-22.46937 -26.89258,-32.0918 -7.91517,-9.62242 -21.38988,-24.22451 -29.94531,-32.44921 -14.4646,-13.90545 -15.2332,-14.89163 -10.94336,-14.06055 2.5373,0.49156 14.51331,1.19516 26.61328,1.56445 l 22,0.67188 -6.66602,-3.52735 c -22.66325,-11.98913 -77.1048,-44.02578 -77.70508,-45.72656 -0.20401,-0.578 3.09665,-1.82207 7.33399,-2.76562 7.47837,-1.66531 16.36503,-6.66108 25.48242,-14.32422 l 4.44336,-3.73438 -37.94922,0.37305 -37.95117,0.37109 4.35547,-20.68945 4.35351,-20.69141 -9.51562,8.81055 c -12.85709,11.90424 -59.43726,42.34789 -61.55469,40.23047 -0.35925,-0.35925 -1.34486,-8.8771 -2.18945,-18.92774 l -1.53516,-18.27343 -6.77344,12.91601 c -7.74655,14.77383 -19.24477,28.06994 -32.38867,37.44922 -4.70758,3.35928 -8.28985,6.80888 -7.96094,7.66602 4.9769,12.96953 10.22879,41.44188 10.19727,55.27343 -0.0413,18.10462 -6.12951,38.79655 -13.00781,44.20704 -5.79269,4.55651 -9.44353,3.44166 -17.63477,-5.38282 -4.08422,-4.39997 -8.14323,-8 -9.01953,-8 -1.29894,0 -6.98047,-9.06271 -6.98047,-11.13476 0,-0.31638 1.55963,-0.96665 3.4668,-1.44532 5.47078,-1.37306 12.02835,1.59862 17.66992,8.00782 2.85974,3.2488 5.55575,5.90625 5.99219,5.90625 0.43644,0 2.12564,-4.34935 3.7539,-9.66602 2.23486,-7.29722 2.95211,-12.93485 2.92383,-23 -0.0575,-20.488 -4.2946,-38.0818 -19.38476,-80.49805 l -8.24024,-23.16406 -3.61523,14.49805 c -1.98795,7.97354 -6.32391,20.79612 -9.63672,28.49609 -3.31282,7.7 -8.18798,19.02401 -10.83399,25.16407 -7.08848,16.44882 -10.21644,29.54671 -11.04687,46.26367 -0.80687,16.24284 0.18678,19.99639 5.65625,21.36914 1.81216,0.45483 3.29492,1.58678 3.29492,2.51562 0,0.92883 0.37565,3.56381 0.83399,5.85547 0.80551,4.02757 0.67865,4.16602 -3.80274,4.16602 -11.16308,0 -18.74573,-10.47188 -18.88281,-26.07813 -0.0658,-7.48799 -0.46106,-9.43479 -1.70508,-8.40234 -3.46864,2.87871 -17.73845,25.07793 -23.44922,36.48047 -9.97168,19.91025 -13.02467,31.59174 -14.36914,54.98047 -0.64223,11.17236 -1.81486,23.88029 -2.60547,28.24023 -6.87267,37.90052 -35.20065,77.81046 -88.300779,124.40234 -20.693214,18.15697 -22.384765,20.08708 -22.384765,25.52539 0,7.54305 16.98685,14.27278 36.273437,14.3711 17.646147,0.09 21.879977,-1.83845 45.726567,-20.83985 20.98671,-16.72259 45.39163,-42.57835 79.29687,-84.00585 16.53614,-20.2049 20.10089,-23.76504 28.36719,-28.33985 15.69058,-8.68358 36.83991,1.11666 43.10351,19.97461 3.68715,11.10093 2.17826,19.96226 -7.78711,45.69141 -14.27377,36.85281 -19.28964,61.43728 -17.91015,87.80273 0.41641,7.95852 0.98577,14.69866 1.26367,14.97656 0.2779,0.2779 3.76621,-2.51927 7.75195,-6.21484 3.98578,-3.69557 11.65016,-8.90177 17.03321,-11.57031 l 9.78711,-4.85156 -7.04493,-3.10938 c -9.72874,-4.29358 -15.79565,-9.21808 -18.07031,-14.66211 -3.13068,-7.49273 0.11972,-15.64185 20.63281,-51.70508 23.28311,-40.93307 33.25628,-65.22865 34.53125,-84.1289 1.46376,-21.69844 -6.9873,-33.04233 -30.5039,-40.95118 -1.90365,-0.64018 -2.01669,-1.5199 -0.80664,-6.2871 1.53876,-6.06222 0.31746,-5.76652 13.4082,-3.24024 4.77182,0.92087 5.38057,0.63223 10.95313,-5.18359 8.38134,-8.74725 11.83823,-20.45709 11.08984,-37.56836 -0.49116,-11.22994 -1.05326,-13.50705 -5.42774,-22.03321 l -4.87695,-9.50781 3.60352,-3.17383 c 4.41201,-3.88478 5.0014,-3.92699 9.17187,-0.64648 10.85061,8.53509 35.81046,11.86111 52.03321,6.93359 11.42927,-3.47152 19.14553,-8.93204 23.76953,-16.82226 1.95202,-3.33092 3.78035,-6.05664 4.0625,-6.05664 0.28214,0 2.90914,0.95782 5.83593,2.1289 l 5.32032,2.12891 -2.66016,5.21484 c -1.46314,2.86798 -5.39996,8.05954 -8.74805,11.53711 -6.00609,6.23846 -6.10204,6.48455 -7.26367,18.32422 -2.32274,23.67397 -0.9871,63.33203 2.13281,63.33203 3.2033,0 14.59448,-8.73789 18.58008,-14.25195 2.22036,-3.07185 4.50653,-5.62121 5.08008,-5.66602 0.57355,-0.0448 3.16749,0.807 5.76563,1.89258 l 4.7246,1.97266 -3.0996,5.53125 c -3.98423,7.10679 -13.58635,15.72153 -23.00782,20.64453 -4.32323,2.25902 -7.42002,4.77408 -7.42187,6.02539 -0.0114,7.75296 13.04281,58.66711 15.75781,61.45703 1.32996,1.36666 16.20477,-6.59284 26.3418,-14.0957 l 8.76172,-6.48438 3.90039,3.73633 c 2.14548,2.05552 3.90039,4.22895 3.90039,4.82813 0,1.93813 -20.5238,16.29505 -29.05078,20.32226 -4.55546,2.1515 -8.28125,4.41968 -8.28125,5.03906 0,2.01607 8.19628,17.49111 14.32617,27.04883 10.7186,16.71253 19.14836,27.33399 21.69531,27.33399 4.78898,0 24.18527,-11.20963 32.36523,-18.70508 l 8.32618,-7.63086 4.58984,3.83203 4.58984,3.83203 -5.94726,6.12891 c -7.17721,7.39733 -18.90891,15.60542 -28.73828,20.10547 l -7.24024,3.31445 2.73828,3.8457 c 3.5241,4.94915 25.63988,25.3573 38.99805,35.98828 l 10.36914,8.25391 6.12695,-1.54297 c 9.9474,-2.50479 19.20263,-7.92339 26.76758,-15.67187 l 7.0918,-7.26367 4.64453,2.87109 4.64649,2.87109 -2.3418,4.0293 c -3.66371,6.30713 -14.40784,15.27985 -23.88477,19.94531 l -8.65039,4.25781 7.09571,4.54493 c 10.6983,6.85047 42.99257,22.33934 55.39453,26.56836 l 10.96289,3.73828 5.03711,-2.65625 c 7.1608,-3.77655 23.35369,-20.28917 26.43359,-26.95508 1.43126,-3.09775 3.26308,-5.6471 4.07031,-5.66602 2.80011,-0.0656 9.86524,2.89792 9.86524,4.13868 0,4.17049 -8.47297,16.60123 -17.42969,25.56835 -5.71795,5.72462 -9.68548,10.64234 -8.81641,10.92774 8.6803,2.85066 11.91849,2.8473 29.66993,-0.0273 24.03425,-3.89215 33.75012,-6.47004 45.44921,-12.06055 14.57089,-6.96281 18.9384,-13.89247 15.10743,-23.96875 -0.74467,-1.95862 -6.37048,-8.55622 -12.50196,-14.66016 -17.09932,-17.0225 -20.82953,-28.00313 -14.40429,-42.40039 2.8838,-6.46187 15.98543,-20.63845 26.10546,-28.24805 l 5.17774,-3.89453 3.83398,4.59375 3.83399,4.5918 -6.34571,5.29688 c -15.66356,13.07643 -22.9996,22.5907 -23.00781,29.83984 -0.007,6.4063 2.59058,10.41623 13.99805,21.60156 19.14388,18.77107 22.20319,33.14842 10.00195,47.00977 -10.92059,12.40642 -31.81561,19.85157 -72.0039,25.65234 -29.47658,4.25466 -49.43675,13.40383 -54.74414,25.09375 -4.16801,9.18028 -2.7461,23.30579 2.63476,26.18555 3.27061,1.75038 38.36711,4.93971 74.91406,6.80859 24.8988,1.27323 34.68409,1.26381 46.85157,-0.0469 14.24973,-1.53496 15.48809,-1.89617 16.86132,-4.91016 1.99669,-4.38225 1.79272,-12.77967 -0.54492,-22.46094 -1.06242,-4.39997 -1.94166,-10.90907 -1.95312,-14.46484 -0.0326,-10.12654 3.63724,-12.70746 24.55273,-17.27734 41.72961,-9.11767 71.64704,-23.16838 78.80469,-37.00977 3.00099,-5.80324 2.45024,-14.16988 -1.36133,-20.67383 -1.82425,-3.11284 -8.50631,-10.46916 -14.84961,-16.34961 l -11.5332,-10.69336 3.18359,-4.02539 c 1.75088,-2.2139 3.54481,-4.05708 3.98633,-4.09765 0.44153,-0.0406 5.56316,4.04674 11.38281,9.08398 43.00473,37.22309 27.46042,69.01391 -44.0957,90.18359 l -10.75781,3.1836 16.66797,0.0449 c 44.70341,0.12483 85.39217,-12.32967 112.9375,-34.57031 4.08706,-3.3 8.24241,-6.59278 9.23437,-7.31836 1.31746,-0.96368 2.9109,-0.21215 5.91211,2.78906 l 4.10938,4.10742 -6.78125,6.09571 c -3.7293,3.35292 -9.48997,7.89098 -12.80079,10.08398 l -6.01953,3.98828 13.03711,1.04883 c 7.1701,0.57707 27.43717,1.02698 45.03711,1 41.57407,-0.0637 58.20047,-3.17304 60.32027,-11.2793 0.3662,-1.4 2.2429,-2.89351 4.1719,-3.32031 1.9291,-0.42681 4.5585,-1.06224 5.8418,-1.41016 1.9102,-0.51786 2.332,0.24732 2.332,4.21289 0,2.66429 -0.5957,5.95712 -1.3242,7.31836 -1.646,3.0755 0.049,3.49911 21.3242,5.33594 21.1545,1.82637 22.0363,1.7998 20.0352,-0.61133 -0.8939,-1.07704 -7.7944,-6.15696 -15.334,-11.28906 -22.8986,-15.58678 -31.0749,-27.5099 -29.7578,-43.39258 1.7228,-20.77483 21.407,-40.48956 59.6406,-59.73047 l 15.3086,-7.70312 2.3321,4.36914 c 1.2821,2.40392 2.356,4.98711 2.3867,5.73828 0.031,0.75116 -5.7934,4.26679 -12.9434,7.8125 -27.3148,13.54548 -45.694,28.22174 -51.8242,41.38672 -7.2289,15.52447 -1.8435,25.37246 23.1895,42.41211 7.8199,5.32314 15.6579,11.83806 17.8027,14.79883 8.2863,11.43886 3.2809,21.46184 -13.707,27.45117 -4.6539,1.64077 -9.361,3.5485 -10.461,4.23828 -5.9783,3.74881 -11.4342,5.24704 -18.3711,5.04687 -12.3209,-0.3555 -22.5964,5.46306 -27.0781,15.33204 -4.1471,9.13226 -2.6808,23.23043 2.7168,26.11914 4.2682,2.28426 66.9783,7.23995 99.0176,7.82422 6.3903,0.11654 17.5781,-0.46652 24.8633,-1.29493 12.0057,-1.36522 13.3836,-1.80706 14.7148,-4.72851 1.9525,-4.28544 1.7828,-12.7203 -0.4434,-22.03321 -1.0558,-4.41679 -1.2971,-7.77204 -0.5781,-8.01171 0.6806,-0.22684 1.7242,-6.19326 2.3203,-13.25782 1.201,-14.23413 3.1735,-18.75058 13.9903,-32.02929 13.5673,-16.65558 15.2656,-21.5491 10.2714,-29.60938 -1.4168,-2.28656 -5.5927,-6.45378 -9.2793,-9.25976 l -6.7031,-5.10157 2.9453,-4.54687 c 1.62,-2.50158 3.546,-4.55584 4.2793,-4.56445 3.0188,-0.0355 16.7597,12.33234 20.1739,18.1582 7.0635,12.05296 4.5161,22.15498 -10.2071,40.49023 l -8.0293,10 7.6973,1.60157 c 10.6119,2.20596 59.2543,8.39843 65.9668,8.39843 10.292,0 23.4622,-13.2103 28.2441,-28.33203 0.5397,-1.7068 2.1589,-2.33398 6.0332,-2.33398 2.9131,0 5.6484,0.56833 6.0782,1.26367 1.5056,2.4362 -4.6643,16.67225 -10.461,24.13672 l -5.8515,7.53515 17.0644,0.81641 c 9.3858,0.44895 23.1905,0.44432 30.6758,-0.0117 l 13.6094,-0.83008 5.6191,-8.78906 c 3.0906,-4.83371 5.9869,-9.8116 6.4375,-11.0625 0.7594,-2.10795 1.2658,-2.12239 6.9043,-0.20117 l 6.082,2.07226 -4.5742,8.61719 -4.5761,8.61719 7.5566,-0.85352 c 11.7268,-1.32537 49.7789,-7.22079 54.043,-8.37304 3.5092,-0.94828 2.75,-1.45336 -9.334,-6.19336 -60.3291,-23.66453 -104.6191,-58.59343 -131.3496,-103.58789 -2.9919,-5.03606 -6.122,-9.15901 -6.9551,-9.16211 -0.8331,-0.003 -10.6653,-4.50255 -21.8496,-9.99805 -14.9937,-7.36724 -22.1147,-11.70527 -27.1074,-16.51758 -6.6247,-6.38534 -6.7628,-6.67956 -6.3985,-13.54297 l 0.3731,-7.01367 -13.9336,-3.10156 c -16.9408,-3.76951 -24.201,-6.38797 -31.5098,-11.36328 -8.9226,-6.07383 -9.1907,-12.6311 -0.9121,-22.30274 3.2911,-3.84491 4.1683,-5.68076 2.9277,-6.125 -0.9745,-0.34894 -10.4701,-2.4549 -21.1035,-4.67968 -35.8297,-7.4967 -40,-9.49522 -40,-19.16211 0,-6.47339 4.3198,-15.86453 8.9863,-19.53516 1.8812,-1.47979 3.1782,-2.86267 2.8829,-3.07422 -0.2952,-0.21155 -6.8372,-1.74337 -14.5372,-3.40429 -7.6997,-1.66096 -25.7,-6.55662 -40,-10.87891 -50.3653,-15.22347 -74.97129,-20.25641 -99.99995,-20.45508 -19.65943,-0.15606 -26.63355,1.52805 -33.09766,7.99219 -4.45774,4.45774 -4.57352,4.83688 -3.92578,12.90625 1.35018,16.82039 18.46826,41.76257 42.42773,61.81836 5.8275,4.878 10.5752,9.52258 10.54883,10.32226 -0.0264,0.79969 -1.50062,3.23069 -3.27539,5.40235 l -3.22656,3.94922 -13.23438,-8.95313 c -28.45931,-19.25188 -63.60749,-30.27734 -96.51757,-30.27734 -18.44559,0 -27.64665,2.34584 -33.96289,8.66211 -6.53082,6.53079 -6.15987,13.14538 1.57421,28.17578 6.77219,13.16099 6.46699,15.16211 -2.30664,15.16211 -8.61324,0 -19.56603,-5.76689 -27.02539,-14.22852 -3.6056,-4.09009 -8.84233,-8.87928 -11.63867,-10.64453 -4.59981,-2.90376 -5.58419,-3.06 -10.32812,-1.63867 -8.77262,2.62834 -10.50458,0.47182 -14.15235,-17.6211 -1.69972,-8.43059 -6.45956,-26.4001 -10.57812,-39.93164 -11.829,-38.86401 -11.396,-50.40749 2.15039,-57.31836 9.81021,-5.00478 40.13231,-2.99741 60.44336,4.00196 10.2888,3.54558 10.90913,3.34737 2.79297,-0.89453 -21.19526,-11.07774 -38.01872,-15.1884 -66.66797,-16.28907 -25.34689,-0.97376 -30.65883,-2.56673 -37.21485,-11.16211 -8.50658,-11.15268 -9.79406,-22.17824 -3.4375,-29.41796 4.86204,-5.53756 17.47163,-9.37568 37.98633,-11.56055 31.4168,-3.34598 79.07531,4.75925 132.02735,22.45312 10.98465,3.67053 20.09926,6.55287 20.2539,6.4043 0.15465,-0.14858 -6.90683,-3.43452 -15.6914,-7.30078 -56.24728,-24.75541 -107.55059,-34.82958 -177.4375,-34.8457 -23.14519,-0.005 -23.62698,-0.0645 -30.64454,-3.73047 -13.27243,-6.93363 -19.15525,-20.39696 -12.92382,-29.57617 4.75669,-7.00691 10.61785,-10.22646 24.13476,-13.25586 32.5329,-7.2913 61.24672,-9.93622 107.61524,-9.91211 38.82552,0.0202 59.51766,1.29584 95.95898,5.91601 11.34406,1.43825 23.04409,2.88901 26,3.22461 l 5.37305,0.61133 -4.66602,-1.26172 c -9.7566,-2.63765 -48.81661,-9.40627 -68.98437,-11.95312 -69.78542,-8.81281 -126.95932,-6.88327 -177.92383,6.00195 -21.54482,5.4471 -32.41126,3.97273 -45.1582,-6.12305 -7.0849,-5.61132 -12.50809,-16.94606 -11.54493,-24.12695 1.45981,-10.88363 9.28423,-15.43946 37.31641,-21.72656 88.54558,-19.85916 241.74306,-24.40228 361.42189,-10.71875 17.5316,2.00449 23.0752,2.36246 22.0957,1.42773 -1.1072,-1.05667 -66.52242,-11.53902 -91.88868,-14.72461 -52.34647,-6.57382 -75.80887,-7.98214 -133.33399,-8.00195 -56.68409,-0.0195 -78.042,1.31458 -118.66601,7.4082 -31.73781,4.76072 -75.80536,15.11525 -98.70118,23.19336 -15.84319,5.58982 -30.33041,-0.42481 -38.20507,-15.86133 -7.81754,-15.32443 -4.94508,-27.85024 9.06054,-39.50586 39.03315,-32.483708 116.35365,-49.333497 236.51172,-51.541012 152.03452,-2.793141 352.38917,23.352022 524.45317,68.439452 9.7825,2.56347 18.0938,4.35532 18.4687,3.98047 0.7911,-0.79115 -38.5735,-13.51239 -74.2559,-23.99609 C 1160.7285,96.167752 1043.9345,72.766375 938.66752,62.072947 892.58202,57.391407 831.61267,54.993564 784.04838,55.58076 Z m 59.0371,36.957031 c -107.32921,-1.508503 -194.80592,9.628769 -245.08593,34.197269 -15.30354,7.47781 -29.06217,17.99282 -31.06641,23.74218 -2.95582,8.47905 3.2756,22.01907 11.75,25.5293 4.79792,1.98736 7.04881,1.57057 30.65039,-5.68164 33.30478,-10.23378 74.0249,-18.11125 120.04102,-23.2207 31.11265,-3.45464 135.85544,-3.46843 171.29297,-0.0234 97.13854,9.44318 185.45678,26.49446 285.33198,55.08984 35.9817,10.30194 106.0138,33.33085 132.668,43.625 8.4333,3.25706 15.7984,5.98461 16.3672,6.0625 0.5688,0.0779 0.1985,-1.50873 -0.8223,-3.52539 -16.2823,-32.16638 30.512,-56.36688 98.8164,-51.10547 10.6498,0.82035 19.5859,1.26965 19.8575,0.99805 1.4081,-1.40813 -85.1272,-26.4424 -134.2188,-38.82812 C 1151.8956,117.3207 981.0802,94.477296 843.08548,92.537791 Z m 22.31836,90.812499 c -37.15458,0.004 -74.11,0.58113 -88.07031,1.72656 -77.46075,6.3556 -140.11564,17.03002 -146.72851,24.99805 -3.48853,4.20342 4.28222,14.93343 14.0625,19.41992 6.45211,2.95978 12.55481,3.1179 21.04101,0.54297 12.08278,-3.66622 39.50159,-8.63972 58.83399,-10.66992 22.34656,-2.34672 72.11397,-2.68541 96.125,-0.6543 94.51114,7.99476 209.91458,38.53586 312.66598,82.74414 9.9,4.25943 18.4592,7.77445 19.0196,7.81055 0.5604,0.0361 -0.468,-2.18555 -2.2832,-4.93555 -7.7771,-11.78216 -9.5937,-26.36681 -4.6075,-36.97461 5.5178,-11.73845 20.0542,-21.10439 40.8926,-26.34765 10.1396,-2.55127 15.3036,-2.93606 39.9473,-2.97071 15.5664,-0.0219 26.9671,-0.41585 25.334,-0.875 -106.8467,-30.04116 -181.8009,-43.19364 -296.96878,-52.10937 -14.75434,-1.14221 -52.10909,-1.70925 -89.26368,-1.70508 z m -679.29882,43.52539 c -0.0406,-0.0133 -0.0764,-0.006 -0.10547,0.0234 -0.23262,0.2386 -2.94671,15.43429 -6.03321,33.76758 -4.00196,23.77114 -5.80743,38.78444 -6.29101,52.33398 -0.37296,10.44998 -0.38976,19 -0.0371,19 0.35268,0 4.27152,-5.55067 8.70898,-12.33398 4.43748,-6.78333 12.62378,-17.73399 18.19141,-24.33399 7.75068,-9.18782 9.96334,-12.69475 9.44141,-14.96679 -0.37492,-1.63212 -5.3872,-13.03279 -11.13868,-25.33399 -5.75147,-12.3012 -10.89817,-23.75957 -11.4375,-25.46484 -0.47191,-1.4921 -1.01472,-2.59824 -1.29882,-2.69141 z m 613.11328,24.34961 c -28.00942,0.004 -55.42437,0.84819 -67.88477,2.53125 -33.24271,4.49021 -51.83425,9.18886 -53.49609,13.51953 -1.49122,3.88606 0.82512,8.50391 5.82617,11.61328 4.82445,2.9996 6.32938,3.14143 42.33594,4 45.20013,1.0778 68.30518,3.903 102.18164,12.49024 40.60777,10.29354 76.39375,26.11339 147.15234,65.05469 15.39998,8.47522 28.10597,15.44553 28.23637,15.48828 0.1303,0.0427 -0.094,-3.1412 -0.5,-7.07422 -1.0834,-10.4975 2.2674,-19.26562 10.9199,-28.57617 16.2322,-17.46683 40.6763,-26.1058 79.3437,-28.03907 l 18,-0.90039 -19.9531,-7.06445 c -71.3415,-25.26373 -143.56553,-41.79937 -220.71288,-50.53125 -14.83496,-1.67909 -43.4398,-2.5158 -71.44922,-2.51172 z m 643.4082,51.44141 -8.9805,0.0254 c -19.3808,0.0562 -53.3969,6.40593 -64.4043,12.02148 -6.1146,3.11943 -10.0756,7.97406 -12.1484,14.89258 -1.3067,4.36132 -2.0365,5.12232 -4.332,4.50586 -1.5186,-0.40782 -4.1862,-0.74975 -5.9278,-0.75977 -2.805,-0.0161 -3.0758,-0.47639 -2.3672,-4.01953 0.44,-2.19998 0.3657,-3.99797 -0.166,-3.99609 -1.7569,0.006 -16.614,9.41538 -24.8593,15.74414 -44.1562,33.89188 -66.9174,89.83269 -60.8653,149.58594 5.5679,54.97253 26.4593,97.03997 65.1035,131.0957 48.8915,43.08596 128.3633,71.93823 226.3203,82.16602 30.2562,3.15906 52.9145,4.15714 94.293,4.14843 l 43.627,-0.01 -0.7891,4.30078 c -1.3797,7.51766 -3.3649,9.73442 -17.3164,19.33984 -2.1789,1.50012 -1.9133,1.62349 2.1855,1.01953 2.5667,-0.37818 19.068,-2.82445 36.668,-5.4375 46.7952,-6.94762 74.3242,-9.90557 101.1602,-10.86718 l 23.8261,-0.85352 -14.4921,-4.44726 c -31.6261,-9.70395 -89.9792,-22.58328 -122.4942,-27.03711 -5.8667,-0.8036 -12.468,-1.74676 -14.668,-2.09571 -3.9823,-0.6317 -3.9878,-0.62537 -1.1562,1.6875 3.6381,2.97168 5.8242,7.26319 5.8242,11.4375 0,3.25453 -0.1677,3.30072 -15.668,4.27539 -21.0084,1.32103 -69.3696,-0.15469 -88.332,-2.69531 -72.7226,-9.74351 -132.9562,-31.5828 -181.334,-65.74805 -17.4867,-12.34939 -45.384,-40.36176 -55.7031,-55.93359 -20.1518,-30.40976 -27.9146,-56.9834 -26.6738,-91.29883 0.5502,-15.21428 1.2164,-19.41583 4.7265,-29.77929 5.3609,-15.82831 12.1323,-27.19668 22.8829,-38.41602 15.1281,-15.78779 32.1584,-26.24769 51.7011,-31.75391 14.1043,-3.97391 36.6386,-3.98894 51.2578,-0.0351 50.0349,13.53188 83.1013,60.87082 77.2422,110.58398 -1.7513,14.86012 -7.0714,31.54652 -13.6133,42.70117 -6.5537,11.17528 -25.2477,29.18133 -37.3183,35.94532 -19.9064,11.15485 -51.149,19.12437 -83.0606,21.1875 l -14.2558,0.92187 5.0742,5.23438 c 18.4486,19.03168 61.2312,44.94135 96.1875,58.25195 l 11.1152,4.23242 9.5508,-5.2207 c 12.8025,-6.99844 13.5527,-8.65402 13.5527,-29.90039 0,-10.43347 0.5156,-17.00413 1.334,-17.01367 0.7333,-0.009 3.5643,-0.38517 6.291,-0.83594 l 4.9571,-0.81836 0.3769,16.35937 0.375,16.35938 10.666,-8.05078 c 5.8667,-4.4279 14.9555,-12.17032 20.1973,-17.20508 9.1342,-8.77331 9.5707,-9.47611 10.4981,-16.89844 1.0138,-8.11438 -0.051,-27.46485 -1.9844,-36.03515 -1.013,-4.49155 -0.8193,-5.14013 1.8379,-6.1504 1.6334,-0.621 4.4283,-1.33404 6.2109,-1.58593 3.0231,-0.42718 3.3433,0.12508 4.7637,8.20898 0.8375,4.76667 1.5868,12.56381 1.666,17.32813 l 0.1445,8.66211 4.6153,-6.49219 c 6.3842,-8.97949 15.8332,-27.59423 20.7929,-40.9668 3.2113,-8.65855 3.9805,-12.49214 3.3926,-16.9043 -1.2317,-9.24476 -6.0127,-18.62759 -12.3203,-24.17968 -3.1978,-2.81483 -5.8145,-5.41912 -5.8145,-5.78711 0,-0.36799 0.9128,-2.85202 2.0274,-5.51953 2.0018,-4.79106 2.0723,-4.826 5.8262,-2.88477 2.0901,1.08082 6.5343,5.00509 9.875,8.7207 3.3407,3.71562 6.3422,6.29113 6.6718,5.72266 0.3297,-0.56848 1.0071,-7.03385 1.5039,-14.36719 1.5495,-22.87397 -2.6853,-54.13213 -8.3984,-62 -4.268,-5.87778 -13.5851,-12.0099 -21.6562,-14.2539 l -7.8497,-2.1836 v -5.95117 -5.95117 l 5.6114,0.89648 c 3.0855,0.4934 8.1842,2.03726 11.332,3.42969 3.1478,1.39243 5.7155,2.11423 5.7051,1.60547 -0.04,-1.98742 -11.2263,-21.37347 -17.0371,-29.52734 -3.3717,-4.73124 -10.2428,-12.93075 -15.2696,-18.22266 -9.0449,-9.5221 -9.2384,-9.63869 -18.7402,-11.24414 -5.9618,-1.00734 -14.7238,-1.31069 -23.1172,-0.79883 -13.1861,0.80413 -13.5376,0.75095 -14.3164,-2.1543 -0.439,-1.63796 -0.8064,-4.25221 -0.8164,-5.81054 -0.022,-3.44176 4.0549,-4.48155 17.8164,-4.54297 8.8409,-0.0395 9.3137,-0.18518 6.832,-2.10742 -5.4649,-4.23326 -29.7361,-15.12469 -41.332,-18.54688 -22.88,-6.75232 -35.2029,-5.66951 -48.1777,4.23438 l -6.043,4.61328 -4.7598,-3.63086 -4.7597,-3.63086 4.8496,-4.44531 z m -678.85352,17.57031 c -8.91436,0.0592 -16.85877,0.54023 -21.86523,1.48828 -13.44413,2.54586 -20.57422,5.44342 -20.57422,8.35938 0,3.39267 5.0972,11.60804 8.98828,14.48632 2.98992,2.21169 6.09678,2.61236 22.24414,2.8711 20.77306,0.33284 33.18487,2.37279 51.23438,8.41992 30.97489,10.37755 65.96365,33.5268 99.5332,65.85156 7.33331,7.0614 13.46763,12.86485 13.63281,12.89649 0.16518,0.0316 -0.34995,-1.59271 -1.14648,-3.60938 -0.79654,-2.01667 -1.505,-7.56734 -1.57422,-12.33398 -0.2057,-14.16477 6.60196,-23.17142 21.75391,-28.77735 7.96681,-2.94754 32.29644,-3.9669 47.23828,-1.97851 6.45376,0.85884 11.99433,1.30253 12.3125,0.98437 0.78333,-0.78334 -51.27571,-22.91585 -76.88281,-32.68554 -40.72994,-15.53939 -80.76843,-27.39471 -111.33399,-32.9668 -11.14888,-2.03245 -28.70326,-3.10451 -43.56055,-3.00586 z m -518.38867,37.0957 h 7.94922 v 4.08985 c 0,2.34281 1.47105,6.01703 3.44531,8.60547 10.67939,14.00138 8.88069,36.39235 -3.95312,49.20898 -7.8451,7.83461 -14.31218,10.57375 -26.40625,11.18555 -8.82132,0.44625 -11.27867,0.0454 -17.66602,-2.87891 l -7.41992,-3.39648 -0.0312,3.59375 c -0.0455,5.16804 -5.56562,17.85881 -10.45117,24.02734 -3.69102,4.66029 -15.5048,13.56445 -17.99609,13.56445 -0.50152,0 -1.6209,-1.55726 -2.48829,-3.46093 -1.28565,-2.82175 -1.2194,-3.66307 0.36133,-4.55665 6.83197,-3.86203 13.57564,-10.02565 16.58008,-15.15234 3.30832,-5.64519 5.09923,-12.88718 8.72852,-35.29883 4.60471,-28.43535 25.62263,-49.53125 49.34765,-49.53125 z m 530.66992,25.42578 c -1.65957,0.006 -3.29091,0.0583 -4.89062,0.16016 -14.36943,0.91498 -15.29785,4.60949 -7.69531,30.64063 9.48283,32.46926 12.46992,43.51936 14.125,52.24414 l 1.68164,8.86328 h 4.89258 c 6.81846,0 14.55241,4.79788 23.27929,14.4414 4.09427,4.52431 7.6523,8.22461 7.90625,8.22461 0.25394,0 -0.0972,-1.94573 -0.77929,-4.32422 -1.81032,-6.31218 -1.51603,-17.76809 0.58593,-22.79882 1.00458,-2.40429 4.42991,-6.59909 7.61133,-9.32227 14.30395,-12.24364 44.14852,-14.54588 79.76172,-6.15039 6.15986,1.45213 11.39881,2.44105 11.64258,2.19727 1.15348,-1.15347 -41.90772,-36.63907 -56,-46.14844 -25.98547,-17.53481 -57.22735,-28.11603 -82.1211,-28.02735 z M 128.87845,528.00068 c 3.34861,0 8.45508,5.78374 8.45508,9.57813 0,7.49919 -6.60644,13.30004 -18.66601,16.38867 -5.54412,1.41992 -6.33792,2.18814 -10.44532,10.11719 -2.4448,4.71955 -4.54613,8.65223 -4.66797,8.73828 -1.66782,1.17793 -10.215569,1.59702 -10.873042,0.5332 -1.687268,-2.73006 3.398346,-15.83529 9.130862,-23.53125 8.96035,-12.02939 21.10773,-21.82422 27.0664,-21.82422 z"
       transform="translate(-42.153844,-42.897166)" />
    <path
       id="path8"
       style="display:inline;fill:#ffff00"
       d="m 239.43509,366.88154 c -0.72889,0.0197 -1.56346,0.13814 -2.57617,0.32813 -2.89902,0.54386 -6.42272,2.67821 -9.08984,5.50586 -2.39567,2.53987 -4.97322,4.63771 -5.72852,4.6621 -2.98445,0.0964 -7.42277,5.32222 -10.57812,12.45704 l -3.31641,7.49804 8.25977,0.01 c 7.73777,0.008 8.66278,0.35372 14.63281,5.4707 3.50511,3.00427 7.24718,7.5531 8.31445,10.10742 1.78595,4.27439 2.11272,4.47126 4.09375,2.49024 1.18384,-1.18384 3.92657,-5.81504 6.09571,-10.29297 3.73321,-7.70678 3.87256,-8.5963 2.62109,-16.63477 -0.76073,-4.88633 -2.60218,-10.29093 -4.33789,-12.72851 -1.69889,-2.38587 -2.17423,-3.76128 -1.08789,-3.14844 1.06089,0.59849 0.33762,-0.56986 -1.60742,-2.59766 -2.26934,-2.36588 -3.50863,-3.18602 -5.69532,-3.12695 z m 30.66407,106.49609 -3.8086,3.64454 c -2.09542,2.00445 -5.01333,5.58734 -6.48242,7.96093 -4.13029,6.67328 -10.24172,27.50799 -11.18164,38.1211 -0.96564,10.90361 -4.20324,29.79988 -5.45312,31.82226 -0.46082,0.74562 -1.30906,6.84099 -1.88477,13.54688 -0.5757,6.70588 -1.78636,17.47809 -2.68945,23.9375 -1.95697,13.99732 -0.4688,20.44224 5.97461,25.87304 l 4.09375,3.44922 0.82421,-21.19922 c 0.55209,-14.18834 1.7793,-25.45686 3.71094,-34.07031 3.24547,-14.47198 8.91924,-31.7262 17.98633,-54.69531 7.35876,-18.64148 7.82143,-24.6478 2.52734,-32.8125 z M 137.89017,586.98701 c -1.20268,-0.0116 -2.69619,0.9817 -4.97656,2.84766 l -3.75391,3.07031 4.98243,4.375 c 8.6442,7.58971 19.19978,10.95198 13.64257,4.3457 -1.71518,-2.03897 -4.25958,-6.23767 -5.65429,-9.33203 -1.62985,-3.61605 -2.69394,-5.29178 -4.24024,-5.30664 z"
       transform="translate(-42.153844,-42.897166)" />
  </g>
</svg>
