<?xml version="1.0" encoding="UTF-8"?>
<svg viewBox="0 0 640 480" xmlns="http://www.w3.org/2000/svg">
 <g fill-rule="evenodd">
  <g stroke-opacity=".805" stroke-width="2">
   <path d="m42.808 222.73c-14.579 18.589 52.225 19.994 47.818 32.381-4.4074 12.388-80.026 35.759-89.76 48.658-6.0954 32.134 103.63 8.7932 52.47 44.921-71.497 17.108-79.788 69.678 14.644 47.609s193.04-45.12 149.5-19.57c-43.538 25.55-41.94 34.842-31.015 42.073 31.716 17.497 259.58 5.4374 288.6-12.807 29.022-18.244-47.302-18.02-43.763-50.716 3.5381-32.696 68.415-26.82 108.94-33.007 129.62-10.113 112.52-51.176 79.808-51.08-32.71 0.096313-191.55-13.371-98.269-34.542 109.04 3.3106 323.34-56.915-18.29-52.277-341.63 4.6377-398.61 4.2386-460.69 38.355z"/>
   <path d="m44.808 226.73c-14.579 18.589 52.225 19.994 47.818 32.381-4.4074 12.388-80.026 35.759-89.76 48.658-6.0954 32.134 103.63 8.7932 52.47 44.921-71.497 17.108-79.788 69.678 14.644 47.609s193.04-45.12 149.5-19.57c-43.538 25.55-41.94 34.842-31.015 42.073 31.716 17.497 259.58 5.4374 288.6-12.807 29.022-18.244-47.302-18.02-43.763-50.716 3.5381-32.696 68.415-26.82 108.94-33.007 129.62-10.113 112.52-51.176 79.808-51.08-32.71 0.096313-191.55-13.371-98.269-34.542 109.04 3.3106 323.34-56.915-18.29-52.277-341.63 4.6377-398.61 4.2386-460.69 38.355z"/>
   <path d="m46.981 223.82c-14.377 18.345 51.501 19.731 47.155 31.956-4.3463 12.225-78.917 35.29-88.515 48.019-6.0109 31.712 102.19 8.6778 51.743 44.331-70.505 16.883-78.681 68.763 14.441 46.984s190.36-44.528 147.43-19.313c-42.935 25.215-41.358 34.385-30.585 41.521 31.276 17.268 255.98 5.366 284.6-12.639s-46.646-17.783-43.157-50.05 67.466-26.467 107.43-32.573c127.82-9.9804 110.96-50.504 78.701-50.409-32.256 0.095032-188.89-13.196-96.906-34.088 107.53 3.2672 318.85-56.168-18.037-51.591-336.89 4.5768-393.08 4.183-454.3 37.852z" fill="#4affff"/>
  </g>
  <path d="m59.773 227.15c23.093-14.211 49.739-17.764 56.844-19.54 7.1056-1.7764 65.726-10.658 35.528 0-30.199 10.658-92.372 19.54-92.372 19.54z" fill="#f0ffff"/>
  <g stroke-opacity=".497" stroke-width="3">
   <path d="m148.14 260.56c-7.4192-18.329-22.258-190.62-7.4192-212.61 14.838-21.994 163.22-40.323 189.19-18.329 25.967 21.994 103.87 51.32 107.58 69.649 3.7096 18.329 22.258 168.62 3.7096 190.62-18.548 21.994-170.64 54.986-189.19 47.655-18.548-7.3315-103.87-76.981-103.87-76.981z"/>
   <path d="m153 258.75c-7.1682-17.92-21.504-186.37-7.1682-207.88 14.336-21.504 157.7-39.425 182.79-17.92 25.088 21.504 100.35 50.177 103.94 68.097 3.5841 17.92 21.504 164.87 3.5841 186.37-17.92 21.504-164.87 53.761-182.79 46.593-17.92-7.1682-100.35-75.266-100.35-75.266z" fill="#5bffff"/>
  </g>
  <g fill="#f0ffff">
   <path d="m260.53 280.25c-14.336-17.92-17.92-111.11-7.1682-132.61 10.752-21.504 107.52-21.504 111.11-7.1681 3.5841 14.336 14.336 17.92-14.336 25.088-28.673 7.1681-60.929 0-71.681 14.336s-10.752 118.27-10.752 118.27l-7.1681-17.92z"/>
   <path d="m159.58 181.7c-7.1955-19.396-8.9943-87.795-3.5977-98.283s53.966 33.779 55.765 45.689c1.7988 11.91 7.1954 19.396-7.1955 11.416-14.391-7.9806-30.581-27.872-35.977-22.519-5.3966 5.3522-5.3966 79.814-5.3966 79.814l-3.5977-16.117z"/>
   <path d="m612.77 297.42c-33.888 4.7452-141.22 19.168-161.72 28.301-20.503 9.1326-43.215 8.6771-41.526 2.5828 1.6896-6.0942 166.51-55.028 189.54-44.922 23.032 10.106 13.705 14.038 13.705 14.038z"/>
  </g>
  <path d="m160.17 59.724s31.975 17.764 46.186 35.528 19.54 21.317 35.528 23.093c15.988 1.7764 115.46-12.435 126.12-17.764 10.658-5.3292-90.596 14.211-113.69 10.658-23.093-3.5528-31.975-15.988-53.292-28.422-21.317-12.435-40.857-23.093-40.857-23.093z" fill="#0cd9eb"/>
 </g>
 <g fill-rule="evenodd">
  <g stroke-opacity=".805" stroke-width="2">
   <path d="m62.808 242.73c-14.579 18.589 52.225 19.994 47.818 32.381-4.4074 12.388-80.026 35.759-89.76 48.658-6.0954 32.134 103.63 8.7932 52.47 44.921-71.497 17.108-79.788 69.678 14.644 47.609s193.04-45.12 149.5-19.57c-43.538 25.55-41.94 34.842-31.015 42.073 31.716 17.497 259.58 5.4374 288.6-12.807 29.022-18.244-47.302-18.02-43.763-50.716 3.5381-32.696 68.415-26.82 108.94-33.007 129.62-10.113 112.52-51.176 79.808-51.08-32.71 0.096313-191.55-13.371-98.269-34.542 109.04 3.3106 323.34-56.915-18.29-52.277-341.63 4.6377-398.61 4.2386-460.69 38.355z"/>
   <path d="m64.808 246.73c-14.579 18.589 52.225 19.994 47.818 32.381-4.4074 12.388-80.026 35.759-89.76 48.658-6.0954 32.134 103.63 8.7932 52.47 44.921-71.497 17.108-79.788 69.678 14.644 47.609s193.04-45.12 149.5-19.57c-43.538 25.55-41.94 34.842-31.015 42.073 31.716 17.497 259.58 5.4374 288.6-12.807 29.022-18.244-47.302-18.02-43.763-50.716 3.5381-32.696 68.415-26.82 108.94-33.007 129.62-10.113 112.52-51.176 79.808-51.08-32.71 0.096313-191.55-13.371-98.269-34.542 109.04 3.3106 323.34-56.915-18.29-52.277-341.63 4.6377-398.61 4.2386-460.69 38.355z"/>
   <path d="m66.981 243.82c-14.377 18.345 51.501 19.731 47.155 31.956-4.3463 12.225-78.917 35.29-88.515 48.019-6.0109 31.712 102.19 8.6778 51.743 44.331-70.505 16.883-78.681 68.763 14.441 46.984s190.36-44.528 147.43-19.313c-42.935 25.215-41.358 34.385-30.585 41.521 31.276 17.268 255.98 5.366 284.6-12.639s-46.646-17.783-43.157-50.05 67.466-26.467 107.43-32.573c127.82-9.9804 110.96-50.504 78.701-50.409-32.256 0.095032-188.89-13.196-96.906-34.088 107.53 3.2672 318.85-56.168-18.037-51.591-336.89 4.5768-393.08 4.183-454.3 37.852z" fill="#4affff"/>
  </g>
  <path d="m79.773 247.15c23.093-14.211 49.739-17.764 56.844-19.54 7.1056-1.7764 65.726-10.658 35.528 0-30.199 10.658-92.372 19.54-92.372 19.54z" fill="#f0ffff"/>
  <g stroke-opacity=".497" stroke-width="3">
   <path d="m168.14 280.56c-7.4192-18.329-22.258-190.62-7.4192-212.61 14.838-21.994 163.22-40.323 189.19-18.329 25.967 21.994 103.87 51.32 107.58 69.649 3.7096 18.329 22.258 168.62 3.7096 190.62-18.548 21.994-170.64 54.986-189.19 47.655-18.548-7.3315-103.87-76.981-103.87-76.981z"/>
   <path d="m173 278.75c-7.1682-17.92-21.504-186.37-7.1682-207.88 14.336-21.504 157.7-39.425 182.79-17.92 25.088 21.504 100.35 50.177 103.94 68.097 3.5841 17.92 21.504 164.87 3.5841 186.37-17.92 21.504-164.87 53.761-182.79 46.593-17.92-7.1682-100.35-75.266-100.35-75.266z" fill="#5bffff"/>
  </g>
  <g fill="#f0ffff">
   <path d="m280.53 300.25c-14.336-17.92-17.92-111.11-7.1682-132.61 10.752-21.504 107.52-21.504 111.11-7.1681 3.5841 14.336 14.336 17.92-14.336 25.088-28.673 7.1681-60.929 0-71.681 14.336s-10.752 118.27-10.752 118.27l-7.1681-17.92z"/>
   <path d="m179.58 201.7c-7.1955-19.396-8.9943-87.795-3.5977-98.283s53.966 33.779 55.765 45.689c1.7988 11.91 7.1954 19.396-7.1955 11.416-14.391-7.9806-30.581-27.872-35.977-22.519-5.3966 5.3522-5.3966 79.814-5.3966 79.814l-3.5977-16.117z"/>
   <path d="m632.77 317.42c-33.888 4.7452-141.22 19.168-161.72 28.301-20.503 9.1326-43.215 8.6771-41.526 2.5828 1.6896-6.0942 166.51-55.028 189.54-44.922 23.032 10.106 13.705 14.038 13.705 14.038z"/>
  </g>
  <path d="m180.17 79.724s31.975 17.764 46.186 35.528 19.54 21.317 35.528 23.093c15.988 1.7764 115.46-12.435 126.12-17.764 10.658-5.3292-90.596 14.211-113.69 10.658-23.093-3.5528-31.975-15.988-53.292-28.422-21.317-12.435-40.857-23.093-40.857-23.093z" fill="#0cd9eb"/>
 </g>
</svg>
