<?xml version="1.0" encoding="UTF-8" standalone="no"?>
<!-- Created with Inkscape (http://www.inkscape.org/) -->
<svg xmlns:inkscape="http://www.inkscape.org/namespaces/inkscape" xmlns:rdf="http://www.w3.org/1999/02/22-rdf-syntax-ns#" xmlns="http://www.w3.org/2000/svg" xmlns:cc="http://web.resource.org/cc/" xmlns:xlink="http://www.w3.org/1999/xlink" xmlns:dc="http://purl.org/dc/elements/1.1/" xmlns:svg="http://www.w3.org/2000/svg" xmlns:sodipodi="http://sodipodi.sourceforge.net/DTD/sodipodi-0.dtd" xmlns:ns1="http://sozi.baierouge.fr" id="svg2" viewBox="0 0 161.01 162.85" version="1.0" inkscape:version="0.91 r13725">
  <defs id="defs4">
    <linearGradient id="linearGradient3196">
      <stop id="stop3226" style="stop-color:#231949;stop-opacity:.33889" offset="0"/>
      <stop id="stop3200" style="stop-color:#000000;stop-opacity:0" offset="1"/>
    </linearGradient>
    <linearGradient id="linearGradient3190" y2="44.028" xlink:href="#linearGradient3196" gradientUnits="userSpaceOnUse" x2="228.18" gradientTransform="matrix(.86010 0 0 1.0006 25.379 -.057705)" y1="74.176" x1="126.49"/>
    <linearGradient id="linearGradient3236" y2="100.77" gradientUnits="userSpaceOnUse" x2="189.7" gradientTransform="matrix(-.83646 0 0 1.0007 221.06 -.067569)" y1="85.687" x1="30.734">
      <stop id="stop3232" style="stop-color:#122f14" offset="0"/>
      <stop id="stop3234" style="stop-color:#000000;stop-opacity:0" offset="1"/>
    </linearGradient>
    <linearGradient id="linearGradient3588" y2="44.028" gradientUnits="userSpaceOnUse" x2="228.18" gradientTransform="matrix(.86010 0 0 1.0006 25.379 -.057705)" y1="74.176" x1="126.49">
      <stop id="stop3584" style="stop-color:#989898;stop-opacity:.62353" offset="0"/>
      <stop id="stop3586" style="stop-color:#cccccc;stop-opacity:0" offset="1"/>
    </linearGradient>
    <linearGradient id="linearGradient3628" y2="156.68" gradientUnits="userSpaceOnUse" x2="30.35" y1="80.496" x1="132.35">
      <stop id="stop3632" style="stop-color:#d72906" offset="0"/>
      <stop id="stop3636" style="stop-color:#684342;stop-opacity:.49804" offset="1"/>
      <stop id="stop3634" style="stop-color:#000000;stop-opacity:0" offset="1"/>
    </linearGradient>
    <filter id="filter3644" y="-.12207" width="1.236" x="-0.118" height="1.2441">
      <feGaussianBlur id="feGaussianBlur3646" stdDeviation="6.5128994" inkscape:collect="always"/>
    </filter>
    <linearGradient id="linearGradient3653" y2="44.028" xlink:href="#linearGradient3196" gradientUnits="userSpaceOnUse" x2="228.18" gradientTransform="translate(-.075388 3.7596)" y1="74.176" x1="126.49"/>
    <linearGradient id="linearGradient3663" y2="44.028" xlink:href="#linearGradient3196" gradientUnits="userSpaceOnUse" x2="228.18" gradientTransform="matrix(.86570 0 0 1.0005 24.289 -.37151)" y1="74.176" x1="126.49"/>
    <linearGradient id="linearGradient3667" y2="44.028" xlink:href="#linearGradient3196" gradientUnits="userSpaceOnUse" x2="228.18" gradientTransform="matrix(.86290 0 0 1.0006 24.872 -.056506)" y1="74.176" x1="126.49"/>
    <linearGradient id="linearGradient3684" y2="91.569" gradientUnits="userSpaceOnUse" x2="152.76" gradientTransform="matrix(.83688 0 0 1.0782 27.312 -10.73)" y1="76.937" x1="119.53">
      <stop id="stop3615" style="stop-color:#fefbfe;stop-opacity:.24706" offset="0"/>
      <stop id="stop3617" style="stop-color:#d9f0e8;stop-opacity:.12157" offset=".5"/>
      <stop id="stop3611" style="stop-color:#cccccc;stop-opacity:0" offset="1"/>
    </linearGradient>
  </defs>
  <g id="layer4" transform="translate(-39.513 -21.08)">
    <rect id="rect3982" style="opacity:.8;fill:#ffffff" rx="20" transform="translate(58.346 37.034)" height="162.85" width="161.01" y="-15.954" x="-18.833"/>
    <path id="path3638" style="fill-rule:evenodd;filter:url(#filter3644);stroke:url(#linearGradient3653);stroke-width:1px;fill:#424242" d="m50.143 50.01c-4.497 51.76 19.899 93.11 64.047 118.16 0.99 0.75 1.42 0.57 2.45-0.07 44.06-25.06 68.4-66.39 63.91-118.09-50.04-11.27-84.86-11.129-130.41 0z" transform="matrix(.93005 0 0 1.0003 12.685 -.029357)"/>
  </g>
  <g id="layer5" transform="translate(-39.513 -21.08)">
    <path id="path3655" style="fill-rule:evenodd;stroke:url(#linearGradient3663);stroke-width:.93068px;fill:#fafafa" d="m67.763 45.904c-3.893 51.783 17.226 93.156 55.437 118.23 0.86 0.75 1.24 0.57 2.13-0.07 38.14-25.08 59.21-66.426 55.33-118.16-43.32-11.272-73.47-11.131-112.9 0.004z"/>
    <path id="path3665" style="fill-rule:evenodd;stroke:url(#linearGradient3667);stroke-width:.92918px;fill:#fafafa" d="m68.205 46.219c-3.88 51.785 17.171 93.161 55.265 118.23 0.85 0.75 1.23 0.57 2.11-0.08 38.02-25.07 59.03-66.42 55.15-118.15-43.18-11.277-73.22-11.136-112.52-0.001z"/>
  </g>
  <g id="layer1" transform="translate(-39.513 -21.08)">
    <path id="path2391" style="fill-rule:evenodd;stroke:url(#linearGradient3190);stroke-width:.92768px;fill:url(#linearGradient3588)" d="m68.573 46.219c-3.869 51.785 17.114 93.161 55.087 118.23 0.85 0.75 1.22 0.57 2.11-0.08 37.89-25.07 58.83-66.42 54.97-118.15-43.04-11.277-72.99-11.137-112.17-0.001z"/>
    <path id="path2400" style="fill-rule:evenodd;stroke:url(#linearGradient3236);stroke-width:.79828px;fill:#ff7f2a" d="m172.25 52.585c3.28 45.189-14.52 81.295-46.74 103.18-0.72 0.65-1.04 0.49-1.79-0.07-32.156-21.88-49.925-57.963-46.646-103.1 34.956-9.577 61.936-9.722 95.176-0.005z"/>
  </g>
  <g id="layer3" style="display:none" transform="translate(-39.513 -21.08)">
    <path id="rect3590" style="fill:url(#linearGradient3628)" d="m104.5 65.159v17.438h-16.933v23.933h16.933v17.75h23.97v-17.75h18.19v-23.933h-18.19v-17.438h-23.97z"/>
  </g>
  <g id="layer2" transform="translate(-39.513 -21.08)">
    <path id="path3676" style="fill-rule:evenodd;fill:url(#linearGradient3684)" d="m124.42 152.46c4.93-26.77 7.74-72.244-0.56-106.9 19.52 1.244 37.88 3.035 43.57 6.873-1.8 45.438-29.91 93.957-43.01 100.03z"/>
  </g>
  <metadata>
    <rdf:RDF>
      <cc:Work>
        <dc:format>image/svg+xml</dc:format>
        <dc:type rdf:resource="http://purl.org/dc/dcmitype/StillImage"/>
        <cc:license rdf:resource="http://creativecommons.org/licenses/publicdomain/"/>
        <dc:publisher>
          <cc:Agent rdf:about="http://openclipart.org/">
            <dc:title>Openclipart</dc:title>
          </cc:Agent>
        </dc:publisher>
        <dc:title>Magic Shield</dc:title>
        <dc:date>2009-03-11T08:32:26</dc:date>
        <dc:description/>
        <dc:source>https://openclipart.org/detail/22121/magic-shield-by-peileppe</dc:source>
        <dc:creator>
          <cc:Agent>
            <dc:title>Peileppe</dc:title>
          </cc:Agent>
        </dc:creator>
        <dc:subject>
          <rdf:Bag>
            <rdf:li>armor</rdf:li>
            <rdf:li>defense</rdf:li>
            <rdf:li>fortress</rdf:li>
            <rdf:li>medieval</rdf:li>
            <rdf:li>metal</rdf:li>
            <rdf:li>orange</rdf:li>
            <rdf:li>protection</rdf:li>
            <rdf:li>remix</rdf:li>
            <rdf:li>shield</rdf:li>
            <rdf:li>shiny</rdf:li>
          </rdf:Bag>
        </dc:subject>
      </cc:Work>
      <cc:License rdf:about="http://creativecommons.org/licenses/publicdomain/">
        <cc:permits rdf:resource="http://creativecommons.org/ns#Reproduction"/>
        <cc:permits rdf:resource="http://creativecommons.org/ns#Distribution"/>
        <cc:permits rdf:resource="http://creativecommons.org/ns#DerivativeWorks"/>
      </cc:License>
    </rdf:RDF>
  </metadata>
</svg>
